<?xml version="1.0" standalone="no"?>
<!DOCTYPE svg PUBLIC "-//W3C//DTD SVG 1.1//EN" "http://www.w3.org/Graphics/SVG/1.1/DTD/svg11.dtd" >
<!--
2013-9-30: Created.
-->
<svg>
<metadata>
Created by iconfont
</metadata>
<defs>

<font id="iconfont" horiz-adv-x="1024" >
  <font-face
    font-family="iconfont"
    font-weight="500"
    font-stretch="normal"
    units-per-em="1024"
    ascent="896"
    descent="-128"
  />
    <missing-glyph />
    
    <glyph glyph-name="x" unicode="x" horiz-adv-x="1001"
d="M281 543q-27 -1 -53 -1h-83q-18 0 -36.5 -6t-32.5 -18.5t-23 -32t-9 -45.5v-76h912v41q0 16 -0.5 30t-0.5 18q0 13 -5 29t-17 29.5t-31.5 22.5t-49.5 9h-133v-97h-438v97zM955 310v-52q0 -23 0.5 -52t0.5 -58t-10.5 -47.5t-26 -30t-33 -16t-31.5 -4.5q-14 -1 -29.5 -0.5
t-29.5 0.5h-32l-45 128h-439l-44 -128h-29h-34q-20 0 -45 1q-25 0 -41 9.5t-25.5 23t-13.5 29.5t-4 30v167h911zM163 247q-12 0 -21 -8.5t-9 -21.5t9 -21.5t21 -8.5q13 0 22 8.5t9 21.5t-9 21.5t-22 8.5zM316 123q-8 -26 -14 -48q-5 -19 -10.5 -37t-7.5 -25t-3 -15t1 -14.5
t9.5 -10.5t21.5 -4h37h67h81h80h64h36q23 0 34 12t2 38q-5 13 -9.5 30.5t-9.5 34.5q-5 19 -11 39h-368zM336 498v228q0 11 2.5 23t10 21.5t20.5 15.5t34 6h188q31 0 51.5 -14.5t20.5 -52.5v-227h-327z" />
    

    
    <glyph glyph-name="11" unicode="&#58880;" d="M921.745-90.735l-293.738 293.738c100.205 116.134 95.512 292.041-14.687 402.189-55.928 55.91-130.278 86.697-209.378 86.697-79.1 0-153.45-30.787-209.378-86.697-115.429-115.377-115.429-303.173 0-418.55 55.928-55.91 130.279-86.697 209.378-86.697 72.7 0 141.193 26.302 195.244 73.953l293.597-293.597 28.963 28.963zM403.959 139.385c-68.558 0.016-132.998 26.7-181.465 75.133-100.039 100.006-100.039 262.759 0 362.765 48.484 48.451 112.907 75.133 181.466 75.133 68.558 0 132.982-26.682 181.465-75.133 100.056-100.006 100.056-262.758 0-362.765-48.484-48.45-112.907-75.133-181.466-75.133z"  horiz-adv-x="1024" />

    
    <glyph glyph-name="xingxing" unicode="&#58937;" d="M570.519552 710.167296c22.187008-63.488 86.016-244.736 86.016-244.736s183.980032 0.51712 274.432 0c59.732992-0.340992 80.896-37.204992 29.696-78.848-51.2-41.643008-223.232-180.224-223.232-180.224s65.714176-206.757888 83.968-264.192c18.251776-57.432064-21.844992-83.283968-59.392-56.32-37.547008 26.966016-234.688512 166.912-234.688512 166.912s-189.457408-135.556096-233.279488-166.912c-43.82208-31.353856-76.116992 7.169024-61.44 53.248 14.676992 46.08 84.992 267.264 84.992 267.264S131.233792 356.557568 92.92288 387.435264c-38.310912 30.877696-39.522304 79.702016 22.940672 79.020032 62.462976-0.681984 281.6 0 281.6 0s64.524288 183.883776 84.992 243.712C504.64256 775.020288 548.332544 773.655296 570.519552 710.167296zM527.318016 708.119296c0 0-90.602496-254.635008-94.528512-265.216-3.923968-10.580992-15.36-18.944-27.648-18.944-9.043968 0-291.84 0-291.84 0s221.717504-179.052544 233.472-187.904c13.824-10.409984 16.576512-22.759424 12.288-36.352-4.288512-13.589504-87.552-277.504-87.552-277.504s228.528128 163.550208 239.616 171.008c9.388032 6.315008 22.355968 6.51776 32.256-0.512 9.901056-7.026688 240.128-170.496 240.128-170.496s-84.315136 265.788416-88.576 278.016c-3.923968 11.264-1.021952 25.430016 8.192 32.256 8.520704 6.313984 238.08 192 238.08 192s-278.864896 0.333824-292.348928 0.507904c-13.485056 0.17408-21.635072 4.612096-27.139072 17.924096C618.16832 451.492608 527.318016 708.119296 527.318016 708.119296z"  horiz-adv-x="1024" />

    
    <glyph glyph-name="shanchu" unicode="&#58915;" d="M386.990351 59.354198 386.990351 452.041812c0 9.866718-8.003606 17.84953-17.851285 17.84953-9.849726 0-17.850261-7.982812-17.850261-17.84953l0-392.687614c0-9.850345 8.000536-17.851577 17.850261-17.851577C378.986745 41.502621 386.990351 49.503852 386.990351 59.354198zM529.793466 59.354198 529.793466 452.041812c0 9.866718-8.003606 17.84953-17.853331 17.84953-9.846656 0-17.848215-7.982812-17.848215-17.84953l0-392.687614c0-9.850345 8.001559-17.851577 17.848215-17.851577C521.788837 41.502621 529.793466 49.503852 529.793466 59.354198zM815.393554 487.740872c-9.845632 0-17.846168-7.983835-17.846168-17.84953l0-481.935264c0-19.697621-15.987768-35.700083-35.702569-35.700083L262.038521-47.744006c-19.715825 0-35.700523 16.002462-35.700523 35.700083L226.337999 469.890318c0 9.866718-8.001559 17.84953-17.850261 17.84953-8.3014 0-15.271424-5.681396-17.26286-13.373589-0.194436 0.107447-0.396036 0.204661-0.588425 0.316202l0-486.72843c0-39.429011 31.953022-71.39812 71.401046-71.39812l499.806295 0c39.430627 0 71.401046 31.969109 71.401046 71.39812L833.244839 469.890318C833.245862 479.757037 825.244303 487.740872 815.393554 487.740872zM869.04872 612.687582 663.473431 612.687582l-65.856545 65.853847c-3.810948 3.811816-8.844798 5.641487-13.840783 5.52176-0.146339 0.00307-0.287561 0.021489-0.4339 0.021489L440.541135 684.084679c-0.128942 0-0.254814-0.016373-0.382732-0.019443-4.979612 0.105401-9.991971-1.726318-13.789616-5.523807l-65.856545-65.853847L154.93593 612.687582c-9.848702 0-17.849238-7.984858-17.849238-17.850553 0-9.849322 8.000536-17.850553 17.849238-17.850553l214.203137 0c0.225137 0 0.444133 0.025583 0.667223 0.033769 5.0799-0.190335 10.221201 1.633197 14.097644 5.508457l65.856545 65.85487 124.462669 0 65.856545-65.85487c3.875419-3.876284 9.017744-5.698792 14.09662-5.508457 0.224113-0.008186 0.44311-0.033769 0.667223-0.033769l214.202113 0c9.848702 0 17.849238 8.001231 17.849238 17.850553C886.898981 604.702724 878.897422 612.687582 869.04872 612.687582zM672.592487 59.354198 672.592487 452.041812c0 9.866718-7.998489 17.84953-17.848215 17.84953s-17.851285-7.982812-17.851285-17.84953l0-392.687614c0-9.850345 8.001559-17.851577 17.851285-17.851577S672.592487 49.503852 672.592487 59.354198z"  horiz-adv-x="1024" />

    
    <glyph glyph-name="xingxing1" unicode="&#58881;" d="M949.12 425.408c-4.864 15.008-17.856 25.952-33.44 28.192l-256.992 37.344-114.944 232.896c-6.976 14.144-21.376 23.104-37.152 23.104-15.776 0-30.176-8.96-37.152-23.104l-114.944-232.896L97.472 453.6c-15.616-2.272-28.576-13.184-33.44-28.192s-0.8-31.456 10.496-42.464l185.984-181.28-43.904-255.968c-2.656-15.552 3.712-31.264 16.48-40.544 12.768-9.28 29.664-10.496 43.648-3.136l229.888 120.864 229.856-120.864c6.048-3.168 12.672-4.768 19.264-4.768 8.576 0 17.152 2.656 24.352 7.904 12.768 9.28 19.136 24.992 16.48 40.544l-43.904 255.968 185.984 181.28C949.92 393.952 953.984 410.4 949.12 425.408z"  horiz-adv-x="1024" />

    
    <glyph glyph-name="you" unicode="&#58882;" d="M553.702 288v27.809h-69.511l55.597 97.299h-27.788l-55.597-97.299-55.597 97.299h-27.809l55.597-97.299h-69.511v-27.809h83.406v-41.702h-83.406v-27.788h83.406v-69.511h27.788v69.511h83.406v27.788h-83.406v41.702h83.427zM706.62 385.321c-30.715 0-55.618-24.903-55.618-55.597v-83.406c0-30.692 24.903-55.597 55.618-55.597h264.132v194.62h-264.132zM942.964 218.489h-222.429c-23.046 0-41.702 18.656-41.702 41.702v55.597c0 23.025 18.656 41.702 41.702 41.702h222.429v-139.002zM887.346 9.953c0-61.429-49.786-111.215-111.215-111.215h-583.86c-61.429 0-111.215 49.786-111.215 111.215v556.073c0 61.429 49.786 111.215 111.215 111.215h583.86c61.429 0 111.215-49.786 111.215-111.215v-125.108h27.788v125.108c0 76.786-62.238 139.024-139.002 139.024h-583.86c-76.786 0-139.024-62.238-139.024-139.024v-556.073c0-76.786 62.238-139.002 139.024-139.002h583.86c76.786 0 139.002 62.238 139.002 139.002v125.13h-27.788v-125.13zM748.323 260.212c15.357 0 27.788 12.452 27.788 27.788s-12.43 27.809-27.788 27.809-27.788-12.452-27.788-27.809 12.43-27.788 27.788-27.788z"  horiz-adv-x="1024" />

    
    <glyph glyph-name="qq" unicode="&#58908;" d="M511.999998 812C229.232866 812 0.021487 582.779412 0.021487 300s229.211379-512 511.978511-512 511.978511 229.220588 511.978511 512S794.76713 812 511.999998 812zM793.886063 140.426655c-13.223163-12.342096-35.924187 1.102101-57.744145 31.296797-9.476839-25.566282-21.818935-49.149397-36.144198-70.309322 30.854728-11.019984 50.691519-28.211529 50.691519-47.608298 0-33.500998-59.287291-60.611449-132.457778-60.611449-43.417859 0-81.767282 9.476839-106.010429 24.24417-24.023136-14.767332-62.59257-24.24417-106.010429-24.24417-73.17151 0-132.457778 27.109428-132.457778 60.611449 0 19.174712 19.835767 36.586267 50.691519 47.608298-14.546298 21.158902-26.66736 44.742017-36.144198 70.309322-21.818935-29.974685-44.518936-43.639916-57.744145-31.296797-18.072611 16.97051-11.239995 76.921927 15.647375 133.785006 6.170536 13.004175 12.783141 24.685215 19.614733 34.82311 3.746324 165.30386 112.62201 297.986765 246.180865 297.986765l0.441045 0c133.558855 0 242.434541-132.462894 246.180865-297.986765 6.832615-10.138918 13.444197-21.819958 19.614733-34.82311C804.906048 217.347558 811.958674 157.397165 793.886063 140.426655z"  horiz-adv-x="1024" />

    
    <glyph glyph-name="fenxiang" unicode="&#58939;" d="M929.344-49.248c0-14.784-12.992-26.88-28.864-26.88L106.624-76.128c-15.872 0-28.8 12.032-28.8 26.88L77.824 561.824c0 14.848 12.928 26.88 28.8 26.88l186.496 0L293.12 629.728 106.624 629.728c-38.528 0-69.824-30.4-69.824-67.904l0-611.072c0-37.504 31.296-67.904 69.824-67.904L900.48-117.152c38.656 0 69.888 30.4 69.888 67.904L970.368 161.12l-41.024 0L929.344-49.248zM449.664 87.52c-1.28 6.912-25.536 171.776 82.56 326.592 85.824 122.944 232 202.88 434.304 237.696l7.616-44.096c-189.824-32.64-326.016-106.176-404.8-218.624-97.536-139.136-74.752-299.456-74.56-300.992L449.664 87.52zM848.32 379.168 810.496 403.104 955.52 632.416 705.6 767.648 726.912 807.008 1019.008 648.992Z"  horiz-adv-x="1024" />

    
    <glyph glyph-name="star-outline" unicode="&#58949;" d="M749.548 168.381l0.028 0.166 0.245 0.423 0.103-0.315zM905.989 356.806c7.458 7.824 8.544 20.069 1.969 29.131-3.601 4.966-8.837 8.016-14.433 9.026l-0.028 0.086-249.451 36.443-0.384 0.52 0.209-0.638-0.398 0.167-0.199 0.223-111.841 225.876-0.060-0.001c-5.156 9.499-16.475 14.293-27.119 10.818-5.834-1.903-10.342-5.951-13.023-10.965h-0.092l-111.148-225.951-1.536-0.536-248.056-36.1c-10.63-1.955-18.698-11.229-18.698-22.425 0-6.135 2.448-11.677 6.384-15.78l-0.029-0.086 180.471-175.916 0.001-0.346-42.858-247.768 0.048-0.036c-1.441-10.712 4.871-21.26 15.514-24.735 5.831-1.903 11.861-1.297 16.983 1.171l0.073-0.053 223.308 116.995 0.614-0.196-0.487 0.355 0.008 0.002 0.725-0.175 222.736-117.258c9.745-4.675 21.728-1.923 28.315 7.129 3.609 4.96 4.89 10.882 4.124 16.516l0.072 0.053-42.423 248.5 180.709 175.953zM724.868 180.809l0.025 0.148 0.219 0.379 0.092-0.282-0.336-0.245zM674.79 197.718l38.431-224.062-201.221 105.788-201.22-105.788 38.428 224.062-162.79 158.682 224.97 32.691 100.611 203.858 100.608-203.858 224.973-32.691-162.792-158.682z"  horiz-adv-x="1024" />

    
    <glyph glyph-name="shanchu1" unicode="&#58946;" d="M920.171-29.922l-316.9 316.898 316.9 316.9-90.249 90.248-316.898-316.898-316.9 316.898-90.248-90.248 316.898-316.9-316.898-316.898 90.248-90.249 316.9 316.9 316.898-316.9z"  horiz-adv-x="1024" />

    
    <glyph glyph-name="jikediancanicon23" unicode="&#59269;" d="M893.216 64.48c42.944 68.192 67.744 149.728 67.744 236.736 0 247.424-200.576 447.744-448 447.744s-448-200.608-448-448.032c0-247.424 200.576-448 448-448 67.264 0 131.04 15.072 188.288 41.664 1.536 0.704 2.944 1.376 3.392 1.6 6.912 3.232 11.744 10.24 11.744 18.4 0 11.232-9.088 20.32-20.32 20.32-4 0-10.784-3.04-10.784-3.04 0 0-0.256-0.16-0.064 0-52.32-24.448-110.688-38.176-172.224-38.176C288.032-106.304 105.696 76 105.696 300.928c0 224.928 182.336 407.264 407.264 407.264 224.928 0 407.296-182.336 407.296-407.264 0-71.936-18.656-139.488-51.392-198.144-0.192 0.032-0.384 0.064-0.544 0.064-70.688 37.504-205.632 113.184-262.624 144.224 37.472 54.464 50.656 83.424 79.616 132.736 4.736 8.096 2.496 14.912-1.12 19.552-5.6 7.168-19.552 6.56-19.552 6.56l-126.912 0 0 40.768 186.56 0c0 0 17.216 2.656 17.216 21.408 0 18.752-17.216 19.744-17.216 19.744l-186.56 0 0 65.28c0 0-1.216 15.616-19.968 15.616-18.752 0-20.992-15.616-20.992-15.616l0-65.28L310.176 487.84c0 0-15.264-0.992-15.264-19.744 0-18.752 15.264-21.408 15.264-21.408l186.528 0 0-40.768-146.688 0c0 0-16.096-1.088-16.096-19.84 0-18.752 16.096-21.12 16.096-21.12l269.504 0c-19.552-38.912-34.336-70.72-56.256-98.624-4.672 2.688-66.4 28.416-137.856 40.512-102.112 16.064-168.672-34.528-168.16-108.736 0.256-39.104 14.592-108.736 109.92-116.096 102.944-11.808 167.488 49.056 209.28 124.288 57.632-23.872 213.12-116.32 274.752-152.608 0.448-0.256 11.136-5.664 16.96-5.664C877.216 48.032 885.568 51.296 893.216 64.48L893.216 64.48zM372.192 122.656c-114.272 11.968-99.744 175.296 46.56 146.4 50.112-9.152 85.312-20.768 121.92-38.816C485.824 140.96 433.792 117.216 372.192 122.656L372.192 122.656zM372.192 122.656M512.96-154.24c-251.008 0-455.2 204.192-455.2 455.2S261.984 756.16 512.96 756.16s455.2-204.064 455.2-454.944c0-85.824-23.808-168.992-68.832-240.608-7.808-13.44-17.76-19.776-31.168-19.776-8.32 0-20.704 6.752-20.832 6.816l-14.048 8.288c-64.672 38.112-196.832 116.032-253.728 141.216-52.512-91.2-124.384-132.384-213.152-122.304-104.224 8.032-116.064 88.832-116.32 123.2-0.224 31.328 10.72 59.04 31.648 80.096 31.776 31.968 84.832 45.184 144.8 35.808 63.008-10.688 116.864-31.232 134.464-38.72 17.184 22.976 30.304 49.28 45.344 79.456l1.504 3.04-257.856 0c-8.736 1.216-23.296 8.608-23.296 28.352 0 20.16 14.912 26.464 22.816 27.008l140 0 0 26.4L310.176 439.488c-8.608 1.376-22.464 8.96-22.464 28.608 0 20.16 14.368 26.432 22.016 26.944l179.808 0L489.536 553.088c1.152 8.576 8.448 22.784 28.192 22.784 20.064 0 26.528-14.528 27.168-22.208l0-58.656 179.36 0c10.048-0.576 24.384-8.192 24.384-26.944 0-19.712-15.232-27.296-23.296-28.544l-180.48-0.064 0-26.4 119.68 0c0.032 0 0.096 0 0.128 0 6.048 0 18.592-0.928 25.12-9.28 6.464-8.352 7.072-18.4 1.664-27.648-8.768-14.944-16.128-28.032-23.136-40.544-15.392-27.488-28.832-51.488-52.256-86.016 20.544-11.232 48.736-26.848 79.776-44.032 58.784-32.576 125.088-69.28 169.984-93.216 30.912 57.728 47.232 122.784 47.232 188.608 0 220.608-179.488 400.096-400.096 400.096S112.864 521.536 112.864 300.928 292.384-99.136 512.96-99.136c57.536 0 113.024 11.968 165.088 35.584l0 0.096 4.256 1.92c1.952 0.832 8.64 3.616 13.76 3.616 15.168 0 27.488-12.352 27.488-27.488 0-10.592-6.208-20.384-15.84-24.896l0-0.032-3.392-1.6C643.744-140.032 579.36-154.24 512.96-154.24zM512.96 741.792c-243.072 0-440.8-197.792-440.8-440.832s197.76-440.8 440.8-440.8c64.32 0 126.624 13.824 185.248 40.992l1.792 0.832c6.176 2.912 9.184 7.552 9.184 12.64 0 7.232-5.92 13.12-13.12 13.12-0.704 0-2.08-0.352-3.616-0.8l0-2.208-5.696-0.064c-54.72-25.312-113.184-38.112-173.792-38.112-228.544 0-414.464 185.92-414.464 414.432S284.448 715.36 512.96 715.36 927.424 529.44 927.424 300.896c0-70.56-18.08-140.288-52.32-201.632l-2.464-4.448-7.744 1.664c-44.928 23.84-114.56 62.4-176.032 96.448-34.656 19.2-65.856 36.48-86.656 47.808l-7.04 3.808 4.544 6.592c25.888 37.6 39.872 62.56 56.064 91.488 7.072 12.576 14.432 25.728 23.264 40.768 2.464 4.16 2.272 7.808-0.608 11.456-2.016 2.592-8.16 3.776-13.024 3.776l-134.912 0 0 55.168 193.76 0c0.672 0.256 10.016 2.496 10.016 14.208 0 10.848-8.032 12.384-10.496 12.576l-193.248 0L530.528 553.088c-0.224 1.44-1.888 8.416-12.768 8.416-11.616 0-13.6-7.936-13.888-9.536l0.064-71.328L310.176 480.64c-1.44-0.192-8.096-1.728-8.096-12.576 0-12.576 8.928-14.24 9.312-14.304l192.512 0.096 0-55.168-153.92 0c-1.664-0.224-8.896-1.76-8.896-12.64 0-11.648 8.384-13.76 10.048-14.048l280 0.096-11.936-23.84c-16.352-32.832-30.496-61.216-50.304-86.368l-3.84-4.896-5.408 3.104c-4.192 2.336-64.64 27.648-135.424 39.648-55.072 8.672-103.84-3.072-132.288-31.744-18.176-18.272-27.68-42.432-27.488-69.824 0.288-37.76 14.048-102.08 103.328-108.96 8.512-0.96 16.672-1.472 24.608-1.472 73.024 0 132.832 41.088 177.824 122.08l3.104 5.632L579.2 212.96c54.048-22.432 194.08-104.96 261.376-144.64l14.304-8.416c2.432-1.344 10.272-4.704 13.28-4.704 6.816 0 12.672 2.176 18.848 12.864 43.712 69.504 66.784 150.016 66.784 233.12C953.792 544.128 756.032 741.792 512.96 741.792zM388.288 114.72c-5.504 0-11.072 0.288-16.704 0.736-59.328 6.208-84.192 48.96-82.24 86.048 1.984 37.632 32.992 78.144 96.48 78.144 10.848 0 22.4-1.184 34.368-3.552 49.312-8.992 85.184-20.448 123.712-39.424l7.104-3.488-4.16-6.752C499.328 149.184 450.4 114.72 388.288 114.72zM385.792 265.28c-54.368 0-80.416-32.416-82.048-64.512-1.6-30.528 19.36-65.76 69.216-70.976 5.088-0.448 10.24-0.672 15.328-0.672 55.52 0 98.336 29.44 142.016 98.08-34.624 16.352-67.936 26.56-112.832 34.752C406.304 264.192 395.68 265.28 385.792 265.28z"  horiz-adv-x="1024" />

    
    <glyph glyph-name="fenlei1" unicode="&#58942;" d="M59.297013 762.463794l901.31275 0 0-61.574381-901.31275 0 0 61.574381ZM59.297013 386.918605l901.31275 0 0-61.575404-901.31275 0 0 61.575404ZM59.297013 11.372394l901.31275 0 0-61.574381-901.31275 0 0 61.574381Z"  horiz-adv-x="1024" />

    
    <glyph glyph-name="shouhuodizhi" unicode="&#58883;" d="M512.029867 805.313067C233.163733 805.313067 7.163733 579.2608 7.163733 300.395733c0-278.814933 226-504.866133 504.866133-504.866133 278.866133 0 504.864 226.0512 504.864 504.866133C1016.893867 579.2608 790.896 805.313067 512.029867 805.313067zM512.029867-152.746667c-250.251733 0-453.143467 202.944-453.143467 453.1424 0 250.251733 202.891733 453.143467 453.143467 453.143467 250.200533 0 453.090133-202.891733 453.090133-453.143467C965.12 50.197333 762.2304-152.746667 512.029867-152.746667zM554.507733 524.059733c0 22.5376-19.5776 40.817067-43.672533 40.817067-24.148267 0-43.6736-18.279467-43.6736-40.817067 0-22.589867 19.5264-40.817067 43.6736-40.817067C534.930133 483.242667 554.507733 501.4688 554.507733 524.059733zM700.222933 361.2576c0 0-13.499733-36.247467 0-40.712533 16.359467-5.400533 58.267733 13.554133 58.267733 13.554133l0-176.4064c0 0-148.1056-56.501333-160.256-54.215467-12.152533 2.2336-160.257067 61.018667-174.797867 54.215467-14.593067-6.750933-160.256-40.6624-160.256-40.6624L263.1808 293.3856c0 0 67.4048 15.422933 72.8576 27.159467 6.490667 14.229333 4.8288 47.464533-43.725867 27.1072-48.554667-20.356267-72.858667-40.7136-72.858667-40.7136l0-217.0688c0 0 14.593067-36.144 43.725867-27.106133 29.1328 9.034667 160.256 54.2656 160.256 54.2656s155.373867-51.979733 174.797867-54.2656c19.4208-2.285867 203.357867 50.1632 203.981867 67.818667 1.973333 59.617067 2.388267 232.9088 0 244.229333C799.773867 386.08 729.357867 370.293333 700.222933 361.2576zM510.8352 239.117867c0 0 160.2048 148.001067 160.2048 277.514667 0 129.514667-160.2048 129.514667-160.2048 129.514667s-160.257067 0-160.257067-129.514667C350.578133 387.118933 510.8352 239.117867 510.8352 239.117867zM398.562133 534.341333c1.090133 4.309333 2.8032 8.4128 4.5696 12.5152 0.622933 1.4016 0.986667 2.9088 1.661867 4.3104 1.8688 3.790933 4.3104 7.218133 6.8032 10.7488 1.194667 1.713067 2.181333 3.531733 3.479467 5.1936 1.922133 2.440533 4.3104 4.5696 6.491733 6.802133 2.4928 2.597333 4.933333 5.2448 7.789867 7.634133 1.245867 0.986667 2.648533 1.8176 3.946667 2.753067 4.205867 3.271467 8.6208 6.334933 13.501867 8.983467 0.155733 0.104533 0.311467 0.208 0.519467 0.260267 11.735467 6.439467 25.186133 11.217067 40.194133 13.6576 7.4784 1.245867 15.2672 1.9744 23.160533 1.9744 0.104533 0 0.104533 0 0.155733 0l0.0512 0c8.1024 0 15.9424-0.727467 23.576533-2.0256 4.104533-0.6752 7.8432-1.921067 11.736533-2.96 3.323733-0.8832 6.855467-1.557333 10.0224-2.699733 3.271467-1.1424 6.180267-2.7008 9.296-4.0512 3.687467-1.6096 7.373867-3.166933 10.801067-5.089067 1.557333-0.9344 2.9088-1.921067 4.3616-2.907733 21.604267-13.554133 37.182933-32.976 42.478933-55.565867 1.402667-5.712 2.129067-11.476267 2.129067-17.2416 0-92.487467-114.453333-222-114.453333-222S396.3808 424.145067 396.3808 516.632533C396.3808 522.6048 397.159467 528.525867 398.562133 534.341333z"  horiz-adv-x="1024" />

    
    <glyph glyph-name="gouwuche" unicode="&#58884;" d="M388.605134-88.834866m-51.726082 0a50.548 50.548 0 1 0 103.452163 0 50.548 50.548 0 1 0-103.452163 0ZM821.897537-88.835889m-51.727105 0a50.549 50.549 0 1 0 103.45421 0 50.549 50.549 0 1 0-103.45421 0ZM863.097892 50.20891c-0.037862 0-0.076748 0-0.115634 0l-496.037447-1.824555-15.790638 1.700735c-5.079692 2.163269-27.458375 14.721283-35.709293 70.319555l-63.657832 478.475466c0.002047 0.76748-0.014326 1.538029-0.069585 2.315742-3.672646 51.243081-25.151843 80.298837-42.523489 95.649454-19.508309 17.240663-38.558178 21.790282-42.178635 22.528086-1.954515 0.398066-3.942799 0.603751-5.937223 0.617054l-63.24237 0.38681c-0.064468 0-0.127913 0-0.192382 0-16.866133 0-30.591739-13.621229-30.695093-30.510898-0.103354-16.954137 13.556761-30.783097 30.510898-30.886451l58.843176-0.360204c6.652514-2.557242 24.226774-12.107759 31.423687-43.074028 0.044002-0.765433 0.107447-1.532913 0.210801-2.304486l66.675562-501.158071c0.019443-0.144286 0.038886-0.287549 0.060375-0.431835 15.637142-106.007359 77.626985-120.631428 84.643796-121.95047 0.788969-0.148379 1.584078-0.265036 2.382257-0.350994l20.366863-2.193968c1.092891-0.11768 2.190899-0.177032 3.288906-0.177032 0.036839 0 0.073678 0 0.110517 0l497.742275 1.830695c16.954137 0.063445 30.648021 13.857613 30.586622 30.81175C893.731586 36.538563 879.99984 50.20891 863.097892 50.20891zM952.421266 519.748866c8.058536 35.101449 4.076852 64.312748-11.891841 86.917582-22.965038 32.509415-60.684104 36.037774-64.909335 36.33351-0.74599 0.052189-1.503237 0.079818-2.238994 0.074701l-521.552563-1.664919c-16.954137-0.054235-30.655184-13.842263-30.600949-30.797423 0.054235-16.95516 13.834076-30.68179 30.797423-30.600949l519.833409 1.659803c2.460028-0.420579 13.036921-2.662643 18.522865-10.429537 3.538593-5.009084 5.03876-12.558014 4.527107-22.01234-0.275269-1.058099-0.499373-2.140757-0.664126-3.246951l-2.176572-14.661931c-0.309038-1.25048-0.639566-2.517333-0.997724-3.804652-0.937348-3.371794-1.263783-6.767124-1.063215-10.075473l-37.120432-250.000867c-0.428765-1.575892-0.743944-3.202948-0.920976-4.879124-4.958942-46.840818-25.684986-52.697199-28.92989-53.328579l-404.592758-36.367279c-16.886599-1.517563-29.345352-16.437367-27.827789-33.323966 1.433652-15.953344 14.82566-27.952632 30.540573-27.952632 0.919952 0 1.850138 0.040932 2.783393 0.124843l405.007197 36.405141c4.903683 0.433882 22.982434 3.013637 41.557488 17.937534 10.81123 8.685823 23.471574 23.048949 32.396851 46.207391 3.054569 3.993964 5.17179 8.79327 5.962805 14.118556L952.421266 519.748866z"  horiz-adv-x="1024" />

    
    <glyph glyph-name="shouji" unicode="&#58911;" d="M291.219129 630.041832c0 30.725792 24.907273 55.633065 55.632041 55.633065l330.297658 0c30.724769 0 55.632041-24.907273 55.632041-55.633065l0-660.08264c0-30.725792-24.907273-55.633065-55.632041-55.633065L346.851171-85.673873c-30.724769 0-55.632041 24.907273-55.632041 55.633065L291.219129 630.041832zM707.890994 603.431777l0 21.164019c0 20.037359-16.242939 36.281321-36.281321 36.281321L352.391351 660.877117c-20.038382 0-36.282345-16.243963-36.282345-36.281321l0-21.164019L707.890994 603.431777zM315.857273-3.561737l0-21.165042c0-20.037359 16.243963-36.281321 36.282345-36.281321l319.218322 0c20.038382 0 36.282345 16.243963 36.282345 36.281321l0 21.165042L315.857273-3.561737zM707.890994 578.015921 316.109006 578.015921l0-555.400462 391.781988 0L707.890994 578.015921z"  horiz-adv-x="1024" />

    
    <glyph glyph-name="kongjian" unicode="&#58930;" d="M662.203733 329.952c11.485867 13.397333 0 22.971733 0 22.971733l-322.338133-3.84 241.032533-32.529067c0 0-184.593067-104.2432-198.946133-120.490667-14.353067-16.264533 0-29.661867 0-29.661867l292.932267 12.970667-0.682667 3.959467-194.679467 15.598933C479.522133 198.9312 650.734933 316.554667 662.203733 329.952zM512 812C229.2224 812 0 582.7776 0 300s229.2224-512 512-512 512 229.2224 512 512S794.7776 812 512 812zM674.2016 183.332267l32-2.56-31.317333-1.399467 30.276267-176.64L512 104.296533l-193.160533-101.563733 36.881067 215.125333-156.279467 152.337067 215.9616 31.368533L512 597.2672l96.597333-195.720533 215.9616-31.368533-156.279467-152.337067L674.2016 183.332267z"  horiz-adv-x="1024" />

    
    <glyph glyph-name="yanjingicon" unicode="&#58916;" d="M934.299025 360.465117c-66.895573 66.682725-210.713073 178.548512-422.300049 178.548512-211.589023 0-355.402429-111.864764-422.294932-178.545442-16.229636-16.165168-25.168216-37.635155-25.168216-60.452837 0-22.826891 8.936533-44.311205 25.166169-60.499909C156.621107 172.839879 300.468283 60.986371 511.998977 60.986371c211.523531 0 355.37787 111.854531 422.302095 178.532139 16.225543 16.187681 25.162076 37.671994 25.162076 60.495816C959.463148 322.833031 950.525592 344.301995 934.299025 360.465117zM899.961986 273.961974c-61.597917-61.376882-193.909361-164.342975-387.964032-164.342975-194.053648 0-326.362023 102.963023-387.954823 164.334789-7.012717 7.001461-10.873652 16.249079-10.873652 26.042119 0 9.798157 3.859911 19.043728 10.867512 26.02984 61.587684 61.380976 193.884802 164.354232 387.960962 164.354232 194.077184 0 326.374302-102.972233 387.961986-164.352185 7.007601-6.989181 10.867512-16.23373 10.867512-26.031886C910.828474 290.204913 906.968563 280.957295 899.961986 273.961974zM511.998977 424.507712c-68.654636 0-124.508735-55.855122-124.508735-124.510782 0-68.65259 55.854099-124.504642 124.508735-124.504642 68.654636 0 124.509758 55.852052 124.509758 124.504642 0 33.210379-12.964266 64.465221-36.505425 88.005356C576.461127 411.543446 545.207309 424.507712 511.998977 424.507712zM511.998977 224.124915c-41.836851 0-75.875085 34.036187-75.875085 75.872015 0 41.839921 34.037211 75.878155 75.875085 75.878155 41.836851 0 75.874061-34.039257 75.874061-75.878155C587.873038 258.161103 553.835827 224.124915 511.998977 224.124915z"  horiz-adv-x="1024" />

    
    <glyph glyph-name="mianfeishangpin" unicode="&#58885;" d="M890.647341-145.466678 133.351636-145.466678c-36.911678 0-66.819848 29.906124-66.819848 66.819848L66.531787 678.646829c0 36.901445 29.90817 66.819848 66.819848 66.819848l757.295706 0c36.910655 0 66.818825-29.918403 66.818825-66.819848L957.466166-78.647853C957.466166-115.561577 927.559019-145.466678 890.647341-145.466678zM935.193907 656.373547c0 36.901445-29.909194 66.819848-66.820871 66.819848L155.624918 723.193395c-36.911678 0-66.819848-29.919427-66.819848-66.819848l0-712.747093c0-36.912701 29.90817-66.821895 66.819848-66.821895l712.748117 0c36.911678 0 66.820871 29.909194 66.820871 66.821895L935.193907 656.373547zM227.491713-25.292668c142.253888 54.813397 233.608525 137.686872 274.066983 248.618381l204.245777 0 0-24.796756 50.246381 0L756.050854 437.359414 599.43998 437.359414l73.084529 73.084529L672.524508 556.774131 417.381527 556.774131c11.744485 16.095583 23.491017 32.845059 35.236526 50.245358l-49.592488 18.271132c-66.124-96.576569-138.121777-171.183777-215.991286-223.821625 18.271132-21.316491 30.016641-35.672454 35.237549-43.067888 15.225773 11.310603 30.234605 23.274076 45.025473 35.889395l0-195.762569 50.245358 0 0 24.796756 129.203664 0c-42.198078-92.226494-126.59321-159.00234-253.185396-200.331631C203.999672 12.556359 215.311299-3.542294 227.491713-25.292668L227.491713-25.292668zM705.803449 269.004055 515.260765 269.004055c8.701173 36.107359 14.573927 76.999698 17.620309 122.677017l172.922375 0L705.803449 269.004055zM317.542658 391.681072l164.44019 0c-2.174526-46.548152-8.483208-87.440491-18.924002-122.677017L317.542658 269.004055 317.542658 391.681072zM531.576359 437.359414 314.279335 437.359414c23.057135 23.056112 45.460378 47.634904 67.211774 73.737398l222.515886 0L531.576359 437.359414zM509.389034 84.334125c0-33.495882 6.089695-55.902194 18.271132-67.211774 12.180414-13.486152 34.801621-20.227694 67.86362-20.227694l129.85551 0c59.597353 0 92.87834 23.708981 99.837846 71.124897 4.78498 27.843138 8.700149 58.729589 11.746532 92.6614-16.531512 5.655813-33.279964 11.963473-50.246381 18.924002-1.740644-35.237549-5.220908-66.994834-10.440793-95.271854-4.350075-26.100448-22.187325-39.151695-53.507658-39.151695L610.532619 45.181407c-20.444635 0-34.149774 3.479241-41.110303 10.440793-6.525624 6.089695-9.7869 18.706037-9.7869 37.845956l0 96.575546-50.246381 0L509.389034 84.334125z"  horiz-adv-x="1024" />

    
    <glyph glyph-name="zaixianpaimai" unicode="&#58947;" d="M512.064 812C229.76 812 0 582.24 0 299.936 0 17.632 229.76-212 512.064-212s512.064 229.632 512.064 511.936C1024.128 582.24 794.368 812 512.064 812zM860.352-26.912 551.616 281.952l74.112 73.6C625.472 355.808 649.92 380.64 649.664 380.64c-7.04 7.168-169.728 170.176-177.088 177.024L234.176 319.136c6.912-7.296 177.152-177.344 177.152-177.344l88.896 88.448 306.56-306.304c-81.344-63.872-183.552-102.336-294.72-102.336-263.744 0-478.4 214.528-478.4 478.272S248.32 778.336 512.064 778.336s478.4-214.592 478.4-478.4C990.464 173.472 940.8 58.72 860.352-26.912zM542.912 642.208c-9.088 9.088-23.872 9.088-32.96 0-9.088-9.088-9.088-23.872 0-32.96l189.696-189.696c4.544-4.544 10.56-6.848 16.512-6.848 5.888 0 11.968 2.304 16.512 6.848 9.088 9.088 9.088 23.872 0 32.96L542.912 642.208zM149.824 282.08c-9.088-9.088-9.088-23.872 0-32.96l189.696-189.696c4.544-4.544 10.56-6.848 16.512-6.848 5.888 0 11.968 2.304 16.512 6.848 9.088 9.088 9.088 23.872 0 32.96L182.784 282.08C173.696 291.168 158.912 291.168 149.824 282.08z"  horiz-adv-x="1025" />

    
    <glyph glyph-name="daishouhuo" unicode="&#58919;" d="M757.020436-87.833049c-61.995983 0-112.384603 50.387597-112.384603 112.384603 0 4.372587 0.207731 8.745175 0.728594 13.013385L451.046766 37.564939c-2.550079-1.301645-5.362124-1.978051-8.380878-1.978051l-61.476143 0c-0.207731 0-0.416486 0-0.572028 0-6.402827-56.010665-54.032614-99.631138-111.708198-99.631138S163.55196-20.422753 157.149133 35.587911l-61.47512 0c-10.30674 0-18.635429 8.328689-18.635429 18.635429L77.038584 343.954071c0 3.435239 0.937348 6.819313 2.706645 9.734712l99.68435 162.825412c23.528879 37.270858 58.299801 56.010665 103.430674 56.010665L424.447968 572.52486c3.175319 68.450998 59.810201 123.160018 129.041982 123.160018l276.301883 0c71.209832 0 129.145335-57.936527 129.145335-129.145335l0-427.415556c0-52.210106-39.561018-95.362928-90.312912-100.984972 0.520863-4.424776 0.780783-9.005095 0.780783-13.586436C869.405039-37.444429 819.016419-87.833049 757.020436-87.833049zM757.020436 99.665299c-41.382503 0-75.114768-33.731242-75.114768-75.114768 0-41.382503 33.731242-75.114768 75.114768-75.114768 41.382503 0 75.114768 33.731242 75.114768 75.114768C832.133158 65.934057 798.402939 99.665299 757.020436 99.665299zM268.909519 123.506287c-41.434691 0-75.165933-33.731242-75.165933-75.165933 0-41.382503 33.731242-75.114768 75.165933-75.114768 41.382503 0 75.114768 33.731242 75.114768 75.114768C344.024288 89.775045 310.292022 123.506287 268.909519 123.506287zM268.909519 160.776122c53.616128 0 98.590436-37.739533 109.730147-88.075964 0.832971 0.104377 1.664919 0.155543 2.550079 0.155543l42.840714 0 0.260943 462.395232-141.43115 0c-32.377408 0-55.17667-12.232602-71.730695-38.415938l-96.821139-158.139693 0-265.839601 44.818765 0C170.371272 123.14199 215.34558 160.776122 268.909519 160.776122zM461.613426 74.835797l194.890712 0c18.479887 36.802184 56.582693 62.10036 100.516298 62.10036 43.933605 0 82.037435-25.298176 100.516298-62.10036 35.344996 0.052189 64.130599 28.889981 64.130599 64.287165L921.667334 566.538519c0 50.64854-41.22696 91.8755-91.8755 91.8755l-276.302907 0c-50.64854 0-91.8755-41.22696-91.8755-91.8755L461.613426 74.835797 461.613426 74.835797zM309.823348 321.103644 190.881398 321.103644c-10.30674 0-18.635429 8.328689-18.635429 18.635429s8.328689 18.635429 18.635429 18.635429l100.308567 0 0 100.308567c0 10.30674 8.328689 18.635429 18.635429 18.635429s18.635429-8.328689 18.635429-18.635429l0-118.943996C328.458777 329.432333 320.130088 321.103644 309.823348 321.103644z"  horiz-adv-x="1024" />

    
    <glyph glyph-name="wode" unicode="&#58886;" d="M960-109.6c-38.4 160-160 288-320 332.8 76.8 44.8 134.4 128 134.4 224 0 140.8-115.2 256-256 256s-256-115.2-256-256c0-96 51.2-179.2 134.4-224C224 178.4 102.4 50.4 64-122.4c0 0 0-6.4 0-6.4 0-12.8 12.8-19.2 25.6-19.2 12.8 0 19.2 6.4 25.6 19.2 0 0 0 6.4 0 6.4 19.2 70.4 51.2 140.8 108.8 192C300.8 146.4 403.2 191.2 512 191.2c108.8 0 211.2-44.8 288-121.6 51.2-51.2 89.6-121.6 108.8-192 0 0 0-6.4 0-6.4 0-12.8 12.8-19.2 25.6-19.2 12.8 0 25.6 12.8 25.6 25.6C960-116 960-109.6 960-109.6zM307.2 447.2c0 115.2 89.6 204.8 204.8 204.8s204.8-89.6 204.8-204.8S627.2 248.8 512 248.8 307.2 338.4 307.2 447.2z"  horiz-adv-x="1024" />

    
    <glyph glyph-name="iconfuxuankuang" unicode="&#59407;" d="M840.074014-148.620507 182.536336-148.620507c-66.028832 0-119.55184 53.529147-119.55184 119.55184L62.984497 628.473103c0 66.022693 53.524031 119.549793 119.55184 119.549793l657.537677 0c66.025763 0 119.55184-53.526077 119.55184-119.549793l0-657.540747C959.625854-95.090337 906.099776-148.620507 840.074014-148.620507zM899.849422 628.473103c0 33.011858-26.764574 59.776432-59.776432 59.776432L182.536336 688.249535c-33.013905 0-59.776432-26.764574-59.776432-59.776432l0-657.540747c0-33.011858 26.761504-59.776432 59.776432-59.776432l657.537677 0c33.011858 0 59.776432 26.764574 59.776432 59.776432L899.850445 628.473103z"  horiz-adv-x="1024" />

    
    <glyph glyph-name="daipingjia" unicode="&#58920;" d="M533.04071 63.619338l-54.509475 1.930979-0.89437 0.102331c-60.83453 6.869455-118.274754 28.290323-166.110225 61.945841-51.827389 36.467563-89.452311 85.693708-108.808148 142.357242-23.916712 69.988004-20.962427 147.928121-18.10638 223.300762 0.893346 23.566742 1.736551 45.825698 1.736551 67.410296 0 27.644617 23.426549 50.916647 50.818409 50.204425 42.999326-1.107217 77.06826-11.163247 113.38949-27.548426 10.29753 26.618241 24.808012 50.585095 43.322691 71.507614 43.031049 48.634674 80.550571 72.27714 114.700345 72.27714 22.050202 0 46.112224-9.759271 71.514777-29.004591 17.584494-13.3214 35.592636-31.215956 49.41034-49.095161 16.70445-21.630646 29.115108-44.286646 37.569664-68.686359 39.284725 16.587793 77.647451 29.195949 123.271558 30.546713 0.461511 0.014326 0.942465 0.021489 1.424442 0.021489 12.898775 0 25.177426-5.190209 34.574447-14.614859 9.503445-9.531074 14.932084-22.535249 14.893198-35.677571-0.099261-40.23333-0.848321-81.071434-1.573845-120.56389-0.164752-8.975419-0.329505-17.949814-0.487094-26.924209-0.110517-6.368034-0.154519-12.976546-0.197498-19.36914-0.249687-37.620829-0.508583-76.522838-13.334703-114.136503-41.926902-123.156948-159.137417-209.9415-291.661709-215.943191L533.04071 63.619338zM482.001267 112.199777l50.79078-1.801019c113.093754 5.494131 212.920344 79.452563 248.607124 184.28005 10.380418 30.440289 10.612709 65.48341 10.838859 99.373265 0.042979 6.515391 0.088004 13.251815 0.202615 19.874653 0.157589 8.990768 0.322341 17.978467 0.488117 26.965142 0.722454 39.311331 1.468444 79.960123 1.566682 119.832226 0.002047 0.647753-0.384763 1.678222-1.251503 2.547009-0.64059 0.642636-1.233084 0.87595-1.473561 0.87595-46.687322-1.382487-85.043908-17.014512-130.34158-37.307697l-26.234501-11.752672-6.152117 28.080545c-6.16542 28.14706-18.113543 53.420677-36.526915 77.263711-22.451338 29.05064-59.502186 59.932997-83.934644 59.932997-11.090593 0-36.19127-7.341199-79.694063-56.509015-19.638269-22.191418-33.704636-48.825009-41.809221-79.161944l-7.416923-27.759227-25.667589 12.914124c-41.467437 20.86419-74.076112 33.164331-118.042463 34.296107 0 0 0 0 0 0-1.02433 0-2.857071-1.787716-2.857071-3.477194 0-22.469758-0.859577-45.159526-1.77032-69.180616-2.694365-71.109548-5.480828-144.640238 15.628956-206.418256C278.451338 192.851655 370.65532 125.073992 482.001267 112.199777zM404.729369-87.876028c-8.116865 0-16.003486 4.233418-20.316721 11.786441-29.735232 52.066843-78.075193 119.133308-139.501194 142.950759-24.964578 9.66922-58.599629 11.19804-87.768973 3.983731-18.058284-4.466732-50.220798-16.412808-62.729693-46.232974-4.992711-11.902074-18.690688-17.502629-30.592762-12.511965-11.903098 4.992711-17.504676 18.689664-12.511965 30.592762 15.129582 36.065404 48.729841 62.178131 94.611821 73.526597 38.588877 9.5454 81.908498 7.385201 115.882264-5.774517 33.357735-12.933567 65.785286-36.411281 96.386234-69.784366 23.531949-25.662473 46.010917-57.145511 66.813708-93.570095 6.40078-11.208273 2.50403-25.484418-8.705266-31.886221C412.642596-86.882398 408.658865-87.876028 404.729369-87.876028zM619.268584-87.876028c-3.929496 0-7.91118 0.991584-11.568477 3.080152-11.208273 6.401804-15.106046 20.677948-8.705266 31.886221 20.802792 36.427654 43.282782 67.907623 66.814732 93.570095 30.600949 33.373085 63.028499 56.851822 96.379071 69.78232 33.980929 13.160741 77.302597 15.319917 115.889427 5.776563 45.883003-11.348466 79.483262-37.46017 94.611821-73.528644 4.992711-11.902074-0.60989-25.599028-12.512988-30.591739-11.902074-4.992711-25.600051 0.607844-30.592762 12.511965-12.508895 29.820166-44.670385 41.765219-62.729693 46.232974-29.170366 7.215332-62.805418 5.686513-87.775112-3.985778-61.418838-23.813359-109.7588-90.882893-139.494031-142.948713C635.273093-83.64261 627.385449-87.876028 619.268584-87.876028zM907.275044 25.557464M512.000512-127.107541c-12.906961 0-23.37129 10.463306-23.37129 23.370267L488.629221 87.009048c0 12.906961 10.464329 23.370267 23.37129 23.370267s23.37129-10.463306 23.37129-23.370267l0-190.746322C535.371802-116.644235 524.907473-127.107541 512.000512-127.107541z"  horiz-adv-x="1024" />

    
    <glyph glyph-name="fenlei" unicode="&#58887;" d="M902.500297 329.612435 644.108319 329.612435c-57.091276 0-103.555517 46.452985-103.555517 103.555517L540.552801 708.444483c0 57.101509 46.464241 103.555517 103.555517 103.555517l258.391978 0c57.07081 0 103.513562-46.454008 103.513562-103.555517l0-275.276531C1006.014882 376.064396 959.57213 329.612435 902.500297 329.612435zM644.108319 749.806519c-22.818705 0-41.362037-18.554588-41.362037-41.362037l0-275.276531c0-22.806425 18.543332-41.362037 41.362037-41.362037l258.391978 0c22.776749 0 41.320081 18.555611 41.320081 41.362037L943.820378 708.444483c0 22.807449-18.543332 41.362037-41.320081 41.362037L644.108319 749.806519zM372.200512 329.612435 113.809557 329.612435c-57.093323 0-103.555517 46.452985-103.555517 103.555517L10.25404 708.444483c0 57.101509 46.462195 103.555517 103.555517 103.555517L372.200512 812c57.071833 0 103.514585-46.454008 103.514585-103.555517l0-275.276531C475.715097 376.064396 429.272345 329.612435 372.200512 329.612435zM113.809557 749.806519c-22.817682 0-41.362037-18.554588-41.362037-41.362037l0-275.276531c0-22.806425 18.544355-41.362037 41.362037-41.362037L372.200512 391.805916c22.776749 0 41.321104 18.555611 41.321104 41.362037L413.521616 708.444483c0 22.807449-18.544355 41.362037-41.321104 41.362037L113.809557 749.806519zM372.200512-210.535649 113.809557-210.535649c-57.093323 0-103.555517 46.452985-103.555517 103.555517L10.25404 168.297422c0 57.101509 46.462195 103.555517 103.555517 103.555517L372.200512 271.85294c57.071833 0 103.514585-46.454008 103.514585-103.555517l0-275.277554C475.715097-164.083687 429.272345-210.535649 372.200512-210.535649zM113.809557 209.657412c-22.817682 0-41.362037-18.554588-41.362037-41.35999l0-275.277554c0-22.805402 18.544355-41.362037 41.362037-41.362037L372.200512-148.342168c22.776749 0 41.321104 18.556635 41.321104 41.362037L413.521616 168.297422c0 22.805402-18.544355 41.35999-41.321104 41.35999L113.809557 209.657412zM783.527648-189.784022c-127.992069 0-232.133941 104.131639-232.133941 232.133941s104.141872 232.133941 232.133941 232.133941c127.993093 0 232.134964-104.131639 232.134964-232.133941S911.520741-189.784022 783.527648-189.784022zM783.527648 212.290379c-93.694939 0-169.939437-76.233242-169.939437-169.94046 0-93.704149 76.245522-169.94046 169.939437-169.94046 93.695962 0 169.94046 76.236312 169.94046 169.94046C953.468109 136.057137 877.222587 212.290379 783.527648 212.290379z"  horiz-adv-x="1024" />

    
    <glyph glyph-name="genghuan" unicode="&#58888;" d="M878.751407 299.959068c-0.021489-202.530716-164.222225-366.712009-366.752942-366.712009-102.983489 0-195.427948 42.987047-261.965363 111.36846l0-58.97416c0-17.35425-14.083763-31.432896-31.43699-31.432896-17.353227 0-31.434943 14.078647-31.434943 31.432896L187.161169 132.342536c0 17.352203 14.080693 31.43699 31.434943 31.43699l146.7022 0c17.350157 0 31.43392-14.084787 31.43392-31.43699 0-17.372669-14.083763-31.434943-31.43392-31.434943l-81.673138 0c55.622832-63.918775 136.976698-104.788601 228.371244-104.788601 167.827333 0 303.882032 136.034233 303.882032 303.878962 0 3.523243-0.417509 6.957459-0.525979 10.461259l2.644223 0c4.357238 12.156878 15.670911 20.956288 29.314653 20.956288s24.962531-8.79941 29.319769-20.956288l1.573845 0c0.104377-3.5038 0.543376-6.915503 0.543376-10.461259l0 0L878.748337 299.959068 878.751407 299.959068zM805.402865 436.222521 658.698618 436.222521c-17.350157 0-31.434943 14.06125-31.434943 31.414477 0 17.375739 14.084787 31.439036 31.434943 31.439036l81.799004 0c-55.662741 63.936171-137.084145 104.804974-228.499158 104.804974-164.30409 0-297.782104-130.478703-303.355029-293.402353l-2.644223 0c-4.333702-12.155854-15.676028-20.955264-29.313629-20.955264-13.644765 0-24.963555 8.79941-29.319769 20.955264l-1.592264 0c0.039909 1.928932 0.356111 3.77293 0.435928 5.679349-0.252757 1.614777-0.961908 3.080152-0.961908 4.780887 0 3.853771 0.921999 7.41897 2.181689 10.832719 16.197914 187.567933 172.812881 334.982354 364.570229 334.982354 102.796224 0 195.469903-42.500976 261.966387-110.718661l0 58.32436c0 17.35425 14.084787 31.416524 31.438013 31.416524 17.349133 0 31.43392-14.062274 31.43392-31.416524l0-146.721643C836.835761 450.283772 822.751998 436.222521 805.402865 436.222521L805.402865 436.222521zM805.402865 436.222521"  horiz-adv-x="1024" />

    
    <glyph glyph-name="icon01" unicode="&#58889;" d="M901.188418 347.078225 595.290473 665.227192c-19.014052 19.751856-44.423769 30.624485-71.652923 30.624485-27.230178 0-52.638871-10.872628-71.653947-30.624485L146.086681 347.078225c-31.572066-32.836873-27.500331-61.223387-22.285562-73.078389 3.725858-8.413624 16.283872-31.533181 52.442396-31.533181l44.842301 0 0-244.74926c0-55.56655 39.933501-107.886149 96.693226-107.886149l130.22083 0L447.999872 148.844372c0 27.77253-4.206812 43.242873 24.179702 43.242873l102.916974 0c28.384467 0 24.179702-15.470343 24.179702-43.242873l0-259.013125 130.219807 0c56.747445 0 96.694249 52.319599 96.694249 107.886149L826.190307 242.465632l44.841278 0c36.158525 0 48.728818 23.12058 52.442396 31.533181C928.689772 285.854838 932.748205 314.241352 901.188418 347.078225zM871.031585 292.841973l-95.26776 0 0-295.124578c0-27.770484-17.906835-57.508785-46.26879-57.508785l-79.794347 0L649.700687 148.844372c0 55.568596-17.83418 93.621261-74.605162 93.621261L472.179574 242.465632c-56.784284 0-74.605162-38.053688-74.605162-93.621261l0-208.636784-79.795371 0c-28.373211 0-46.267766 29.739325-46.267766 57.508785L271.511275 292.841973l-95.26776 0c-0.88516 0-1.697665 3.469008-2.434445 3.51608 1.746784 3.050476 4.759397 10.773368 9.753131 15.9646l305.922505 317.92691c9.138124 9.519818 22.039969 15.347546 34.547841 15.22475 12.508895 0.122797 24.622794-5.704932 33.747615-15.22475l305.947064-317.92691c4.969175-5.190209 7.995091-12.913101 9.741875-15.9646C872.72925 296.309958 871.918791 292.841973 871.031585 292.841973z"  horiz-adv-x="1024" />

    
    <glyph glyph-name="bianji" unicode="&#58938;" d="M378.423596 289.275152c-0.461576-0.58699-0.924444-1.202424-1.131313-1.943273l-35.69002-130.090667c-2.082909-7.572687 0.050424-15.734949 5.688889-21.487192 4.218828-4.098586 9.777131-6.348283 15.696162-6.348283 1.954909 0 3.913697 0.232727 5.842747 0.742141l129.922586 35.229737c0.208162 0 0.30901-0.182303 0.46804-0.182303 1.49204 0 2.958222 0.539152 4.06497 1.665293l347.420444 345.345293c10.318869 10.272323 15.979313 24.26699 15.979313 39.491232 0 17.252848-7.360646 34.496646-20.249859 47.27596l-32.810667 32.672323c-12.867232 12.812929-30.237737 20.143838-47.583677 20.143838-15.309576 0-29.385697-5.626828-39.730424-15.873293L378.940768 290.47499C378.581333 290.146586 378.682182 289.657859 378.423596 289.275152M816.709818 546.026343l-34.508283-34.280727-55.942465 56.499717 34.018263 33.821737c5.376 5.373414 15.79701 4.588606 21.974626-1.572202l32.832646-32.672323c3.426263-3.400404 5.379879-7.928242 5.379879-12.404364C820.445091 551.746263 819.131475 548.41697 816.709818 546.026343M440.210101 283.85002l250.692525 249.245737 55.969616-56.537212L496.646465 227.802828 440.210101 283.85002 440.210101 283.85002zM394.536081 182.797253l18.115232 66.107475 48.324525-48.046545L394.536081 182.797253 394.536081 182.797253zM838.715475 409.172364c-13.151677 0-23.933414-10.631758-23.985131-23.88299l0-321.976889c0-16.884364-13.791677-30.595879-30.801455-30.595879L236.073374 32.716606c-16.985212 0-30.832485 13.711515-30.832485 30.595879L205.240889 588.839111c0 16.898586 13.847273 30.626909 30.832485 30.626909l352.850747 0c13.222788 0 23.955394 10.675717 23.955394 23.828687 0 13.124525-10.731313 23.818343-23.955394 23.818343L232.418263 667.113051c-41.404768 0-75.103677-33.476525-75.103677-74.665374l0-532.769616c0-41.188848 33.698909-74.652444 75.103677-74.652444l555.134707 0c41.435798 0 75.115313 33.463596 75.115313 74.652444L862.668283 385.440646C862.617859 398.540606 851.86198 409.172364 838.715475 409.172364"  horiz-adv-x="1024" />

    
    <glyph glyph-name="pengyouquan" unicode="&#58931;" d="M511.993261 812C229.234524 812 0.006735 582.785684 0.006735 300c0-282.772211 229.227789-512 511.986526-512s512 229.227789 512 512C1023.993261 582.785684 794.751998 812 511.993261 812zM648.953261 635.912421c28.389053-12.234105 55.565474-28.483368 80.613053-48.693895 10.253474-8.232421 20.183579-17.125053 29.655579-26.745263 22.150737-22.460632 40.542316-47.333053 55.498105-73.620211 3.745684-6.602105 7.329684-13.325474 10.617263-20.089263L648.953261 287.698526C650.691367 298.477474 648.953261 635.912421 648.953261 635.912421zM472.771367 661.242947c12.975158 1.549474 26.165895 2.371368 39.585684 2.371368 31.326316 0 61.709474-4.311579 90.583579-12.193684 7.248842-2.034526 14.443789-4.230737 21.490526-6.669474l0-253.197474c-6.292211 8.825263-242.620632 246.258526-242.620632 246.258526C410.469051 649.507368 440.959998 657.578105 472.771367 661.242947zM237.103156 528.230737c8.138105 10.347789 16.828632 20.453053 26.354526 30.086737 22.137263 22.460632 46.592 41.189053 72.555789 56.346947 6.467368 3.799579 13.109895 7.370105 19.819789 10.778947l176.370526-179.051789c-10.617263 1.724632-343.080421-0.067368-343.080421-0.067368C201.195788 475.211789 217.189051 502.792421 237.103156 528.230737zM163.954524 267.002947c-1.522526 13.163789-2.371368 26.610526-2.371368 40.178526 0 31.824842 4.244211 62.598737 12.018526 91.930947 1.980632 7.370105 4.149895 14.713263 6.534737 21.827368l249.465263 0c-8.744421-6.373053-242.539789-246.258526-242.539789-246.258526C175.434103 203.717053 167.551998 234.679579 163.954524 267.002947zM293.908209 28.006737c-10.253474 8.245895-20.210526 17.098105-29.642105 26.691368-22.177684 22.501053-40.623158 47.346526-55.525053 73.687579-3.745684 6.588632-7.316211 13.271579-10.617263 20.129684l176.330105 179.051789c-1.711158-10.819368 0.107789-348.267789 0.107789-348.267789C346.091788-8.453053 319.009682 7.769263 293.908209 28.006737zM550.905261-47.755789c-12.961684-1.509053-26.179368-2.371368-39.558737-2.371368-31.353263 0-61.669053 4.311579-90.570105 12.234105-7.235368 1.967158-14.416842 4.203789-21.504 6.629053L399.272419 221.960421c6.292211-8.879158 242.607158-246.231579 242.580211-246.231579C613.207577-36.020211 582.703156-44.064 550.905261-47.755789zM784.875788 83.909053c-8.151579-10.401684-16.882526-20.506947-26.300632-30.100211-22.177684-22.514526-46.659368-41.229474-72.555789-56.360421-6.534737-3.826526-13.109895-7.397053-19.833263-10.765474L489.802103 165.707789c10.644211-1.724632 343.053474 0.040421 343.053474 0.040421C820.79663 136.901053 804.762946 109.360842 784.875788 83.909053zM850.061472 214.199579c-1.980632-7.356632-4.149895-14.672842-6.534737-21.813895L594.101893 192.385684c8.744421 6.386526 242.553263 246.272 242.553263 246.272 11.573895-29.062737 19.482947-60.011789 23.093895-92.321684 1.522526-13.177263 2.371368-26.597053 2.371368-40.192C862.106946 274.319158 857.849261 243.572211 850.061472 214.199579z"  horiz-adv-x="1024" />

    
    <glyph glyph-name="iconxiajiantou" unicode="&#58948;" d="M1021.640404 535.666101c0 9.033697-3.458586 18.073859-10.348606 24.958707-13.80202 13.803313-36.115394 13.803313-49.918707 0L512.003879 111.220687 62.63596 560.624808c-13.808485 13.803313-36.121859 13.803313-49.923879 0-13.803313-13.803313-13.803313-36.115394 0-49.923879l474.362828-474.364121c13.808485-13.803313 36.121859-13.803313 49.923879 0L1011.291798 510.700929C1018.181818 517.589657 1021.640404 526.624646 1021.640404 535.666101L1021.640404 535.666101zM1021.640404 535.666101"  horiz-adv-x="1024" />

    
    <glyph glyph-name="liuyan" unicode="&#58940;" d="M368.413256 310.3006c0-28.251438-22.936385-51.093678-51.232848-51.093678-28.250414 0-51.186799 22.842241-51.186799 51.093678 0 28.250414 22.936385 51.185776 51.186799 51.185776C345.476871 361.486376 368.413256 338.551014 368.413256 310.3006zM955.006138 338.643112c0 213.137285-199.057615 386.55494-443.802782 386.55494-244.74312 0-443.801758-173.417655-443.801758-386.55494 0-126.614699 71.325465-245.208724 190.94689-317.465398l0-121.859395c0-8.674567 4.754281-16.597003 12.353352-20.606317 3.496637-1.958608 7.179516-2.889817 11.141758-2.889817 4.568039 0 9.04398 1.304715 12.960173 3.913123l56.221466 37.109176c1.072425 0.653893 2.097778 1.493004 2.703575 2.052752l63.587224 42.329061c31.699979-5.965875 63.305815-9.04398 93.981465-9.04398C755.9475-47.725586 955.006138 125.600995 955.006138 338.643112zM293.404911 55.11464C181.242366 118.328357 114.34577 224.337763 114.34577 338.737256c0 187.217962 178.033789 339.564719 396.856563 339.564719 218.824821 0 396.857587-152.346757 396.857587-339.564719S729.981105-0.827463 511.203356-0.827463c-30.581506 0-62.280462 3.357468-94.167706 9.977235-6.060019 1.396813-12.493545 0.092098-17.807574-3.451612l-74.402547-49.600675c-1.025353-0.559748-2.517333-1.864464-2.517333-1.864464l-16.969487-11.18883 0 91.651396C305.338708 43.178797 300.723597 50.920108 293.404911 55.11464zM570.967508 324.658609c0-28.250414-22.935362-51.27992-51.278897-51.27992-28.250414 0-51.186799 23.029506-51.186799 51.27992s22.936385 51.093678 51.186799 51.093678C548.032146 375.752288 570.967508 352.909024 570.967508 324.658609zM771.14462 324.658609c0-28.250414-22.936385-51.27992-51.186799-51.27992-28.250414 0-51.186799 23.029506-51.186799 51.27992s22.936385 51.093678 51.186799 51.093678C748.208235 375.752288 771.14462 352.909024 771.14462 324.658609z"  horiz-adv-x="1024" />

    
    <glyph glyph-name="shineitu" unicode="&#59026;" d="M911.619072 211.663616 659.408896 462.879488c0 0-55.001088 52.262912-117.133312-0.28672-42.092544-42.090496-112.835584-112.836608-148.95104-148.950016l-36.578304 35.136512c-27.787264 26.389504-72.851456 26.389504-100.636672 0L124.090368 221.952768l0.192512-0.277504c-10.843136-6.649856-17.855488-18.955264-16.81408-32.841728 1.3312-17.747968 16.057344-31.911936 33.841152-32.602112 8.938496-0.34816 17.159168 2.6368 23.552 7.794688l0.676864-0.95232c0.68096 1.106944 1.32096 2.234368 2.015232 3.33824 1.472512 1.458176 2.803712 3.050496 4.002816 4.74624l109.709312 105.942016c13.896704 13.196288 36.424704 13.196288 50.315264 0l110.186496-106.406912c1.079296-1.558528 2.285568-3.016704 3.584-4.38272 0.673792-1.071104 1.289216-2.163712 1.963008-3.234816l0.699392 0.717824c6.672384-5.680128 15.459328-8.941568 25.033728-8.374272 17.753088 1.051648 32.147456 15.483904 33.147904 33.23904 0.720896 12.806144-5.388288 24.20224-15.000576 30.959616l-47.27808 45.41952 122.707968 121.977856c0 0 30.449664 29.145088 66.10944 2.310144 34.571264-35.002368 223.883264-226.251776 223.883264-226.251776l1.301504 1.145856c6.971392-6.151168 16.350208-9.628672 26.56768-8.723456 17.026048 1.506304 30.698496 15.321088 32.034816 32.360448 0.666624 8.480768-1.678336 16.390144-6.057984 22.786048L911.619072 211.663616zM891.403264 812 132.600832 812C59.382784 812 0 752.619264 0 679.379712l0-758.784C0-152.635648 59.382784-212 132.600832-212l758.802432 0C964.61824-212 1024-152.635648 1024-79.404288L1024 679.380736C1024.001024 752.620288 964.617216 812 891.403264 812zM962.557952-33.882368c0-64.446464-52.243456-116.68992-116.688896-116.68992L178.125824-150.572288c-64.443392 0-116.6848 52.242432-116.6848 116.685824L61.441024 633.881344c0 64.44544 52.24448 116.68992 116.68992 116.68992l667.738112 0c64.446464 0 116.688896-52.24448 116.688896-116.688896L962.557952-33.882368zM411.941888 464.114432c30.773248-0.978944 55.916544 24.168448 54.933504 54.940672-0.889856 27.867136-23.586816 50.56512-51.454976 51.456-30.774272 0.98304-55.92576-24.168448-54.940672-54.94272C361.371648 487.697152 384.07168 465.001216 411.941888 464.114432z"  horiz-adv-x="1024" />

    
    <glyph glyph-name="duihao" unicode="&#58909;" d="M247.466667 279.669333c-8.405333 8.234667-8.554667 21.738667-0.298667 30.165333 8.234667 8.405333 21.738667 8.554667 30.165333 0.298667L483.797333 108 917.312 556c8.192 8.469333 21.696 8.704 30.165333 0.490667 8.469333-8.170667 8.704-21.674667 0.490667-30.165333L514.432 78.325333l-29.845333-30.826667-30.656 30.016L247.466667 279.669333"  horiz-adv-x="1195" />

    
    <glyph glyph-name="p-wait-sentgoods" unicode="&#58921;" d="M200.058-49.011c-52.692 0-95.56 42.171-95.56 94.007v677.99c0 51.846 42.868 94.024 95.56 94.024h803.198c52.684 0 95.544-42.18 95.544-94.024v-678.009c0-51.825-42.861-93.988-95.544-93.988l-803.198 0zM142.342 50.385c0-34.481 28.346-62.534 63.187-62.534h792.242c34.843 0 63.19 28.053 63.19 62.534v429.347l-302.237 0.483 0.030-241.056-0.969-2.234 0.317-3.975c0.279-3.54-0.528-7.083-2.273-9.983-3.49-5.802-10.672-9.553-18.295-9.553-3.56 0-6.939 0.858-9.773 2.482l-111.431 66.8-112.572-61.672-5.361-1.844c-1.982-0.682-4.003-1.027-6.007-1.027-10.522 0-19.752 9.364-19.752 20.039l-0.036 241.523-330.262 0.481-0-429.811zM615.137 325.872c2.321 0 4.623-0.374 6.845-1.112l4.738-1.579 91.165-54.202-0.069 511.119h-204.405l0.071-508.020 97.367 53.377 0.903 0.148c1.102 0.179 2.242 0.27 3.386 0.27zM472.56 519.528l-0.034 260.569h-266.997c-34.842 0-63.187-28.043-63.187-62.512v-197.542l330.218-0.515zM1060.98 519.545v198.039c0 34.469-28.348 62.512-63.19 62.512h-239.080l0.048-260.069 302.222-0.482z"  horiz-adv-x="1114" />

    
    <glyph glyph-name="tianjia" unicode="&#58933;" d="M929.765267 383.706311c-0.005117 0-0.011256 0-0.016373 0l-418.045141-0.221034L511.482719 801.511999c-0.00921 16.949021-13.751189 30.682813-30.699186 30.682813-0.005117 0-0.011256 0-0.016373 0-16.95516-0.00921-30.692023-13.760398-30.682813-30.715559l0.221034-418.026722-418.012396-0.221034c-16.95516-0.00921-30.692023-13.760398-30.682813-30.715559 0.00921-16.949021 13.751189-30.682813 30.699186-30.682813 0.005117 0 0.011256 0 0.017396 0l418.012396 0.221034 0.221034-418.012396c0.00921-16.949021 13.751189-30.682813 30.699186-30.682813 0.005117 0 0.011256 0 0.016373 0 16.954137 0.00921 30.692023 13.760398 30.682813 30.715559l-0.221034 418.012396 418.045141 0.221034c16.954137 0.00921 30.692023 13.760398 30.682813 30.715559C960.455243 369.972519 946.712241 383.706311 929.765267 383.706311z"  horiz-adv-x="1024" />

    
    <glyph glyph-name="weixin-dis" unicode="&#58910;" d="M320.418 587.776c-19.443 0-39.074-13.056-39.074-32.849 0-19.712 19.631-32.93 39.074-32.93 19.469 0 32.525 13.218 32.525 32.93-0 19.793-13.043 32.849-32.525 32.849zM502.178 521.984c19.631 0 32.606 13.231 32.606 32.93 0 19.806-12.975 32.849-32.606 32.849-19.443 0-39.006-13.056-39.006-32.849 0.013-19.699 19.564-32.93 39.006-32.93zM512 896c-282.786 0-512-229.201-512-512 0-282.786 229.214-512 512-512 282.799 0 512.013 229.214 512.013 512 0 282.799-229.214 512-512.013 512zM404.844 251.917c-32.445 0-58.557 6.643-90.974 13.218l-90.799-46.188 25.937 79.212c-65.011 46.067-103.923 105.364-103.923 177.651 0 125.278 116.992 223.906 259.759 223.906 127.731 0 239.603-78.835 262.036-184.819-8.179 0.93-16.559 1.536-25.007 1.536-123.392 0-220.82-93.373-220.82-208.29 0-19.213 2.978-37.645 8.003-55.229-8.003-0.66-16.034-0.997-24.212-0.997zM787.968 159.757l19.537-65.886-71.222 39.518c-26.045-6.575-52.049-13.15-77.918-13.15-123.567 0-221.009 85.598-221.009 190.976 0 105.283 97.442 191.057 221.009 191.057 116.642 0 220.578-85.76 220.578-191.057-0.013-59.298-38.818-111.872-90.974-151.458zM729.533 396.894c-12.8 0-25.694-13.231-25.694-26.381 0-13.204 12.894-26.274 25.694-26.274 19.537 0 32.593 13.069 32.593 26.274-0.013 13.15-13.056 26.381-32.593 26.381zM586.658 396.894c-12.867 0-25.923-13.231-25.923-26.381 0-13.204 13.056-26.274 25.923-26.274 19.712 0 32.525 13.069 32.525 26.274 0 13.15-12.813 26.381-32.525 26.381z"  horiz-adv-x="1025" />

    
    <glyph glyph-name="dianhua" unicode="&#58944;" d="M388.833331-60.777993l0.011256 0c-33.525558 0-64.276932 7.850805-91.424222 23.361057-28.995381 16.564257-51.616588 42.091654-70.773903 71.466682-2.555196 4.597715-2.809999 5.108345-5.387707 9.826809-28.91761 52.922327 3.572362 136.681986 82.681094 198.98189 43.120077 33.945113 90.788749 53.40942 130.801045 53.40942 29.739325 0 53.809533-10.904351 68.384483-30.846542 3.120061-2.042519 8.325619-4.710278 12.595876-4.710278 1.224898 0 3.773953 0 7.592932 4.323469 0.24764 0.257873 0.49528 0.51677 0.744967 0.797156 22.274306 28.887934 42.862203 59.995419 61.23362 92.477204 16.876366 29.857005 31.81459 60.728106 44.409442 91.832522 1.74269 9.830903 0.429789 14.734586-0.689708 16.111956-0.805342 0.99056-3.203972 1.636267-3.225461 1.636267-21.801539 0.514723-41.280172 10.32516-56.779168 28.352745-29.169343 33.94409-41.570791 93.619214-33.159214 159.637814C548.731064 757.093347 604.241332 833.415616 664.968415 833.415616c0.193405 0 1.526773-0.021489 1.730411-0.021489 2.88163-0.065492 5.699816-0.343831 8.463766-0.773619 37.279045 1.655709 71.569012-6.109138 101.374852-23.124673 137.952932-78.818113 140.856052-326.548264 6.623861-563.969629C679.562808 62.311417 521.097704-60.777993 388.833331-60.777993zM434.73987 245.97646c-28.515451 0-65.773006-15.939017-99.686397-42.635029-59.134819-46.550199-85.226057-107.742886-71.882144-132.762723 2.043542-3.832282 3.476171-6.232958 4.597715-8.17417 13.282514-22.988574 33.157167-43.88858 54.602595-56.151881 19.445888-11.122315 41.808198-16.73515 66.459644-16.73515 112.924909 0 257.062703 115.450429 350.541725 280.769638 116.411313 205.886137 122.003682 432.813496 12.208043 495.54012-22.028713 12.562107-48.015573 18.11252-76.420507 16.413831-2.086521-0.107447-4.173043 0.020466-6.215562 0.408299-1.13894 0.236384-2.300392 0.428765-3.485381 0.472767-29.868261 0-69.986981-57.136302-79.721693-133.61002-6.441713-50.55235 1.958608-97.854679 21.405519-120.486118 9.119705-10.605545 16.854876-10.777461 19.390629-10.841929 2.184759 0 25.738198-0.731664 41.569768-20.284999 12.08013-14.908548 15.59928-35.107589 10.457166-59.995419-0.303922-1.461281-0.733711-2.904143-1.291412-4.303003-13.619182-33.880645-29.835516-67.546396-48.208978-100.050694-20.048615-35.449373-42.603307-69.375044-67.050092-100.844779-1.085728-1.399883-2.302439-2.667759-3.615341-3.787256-11.895935-12.111852-26.577309-18.498306-42.678008-18.498306-25.533536 0-45.344744 16.521279-47.520293 18.414395-1.88186 1.63422-3.52836 3.547803-4.849448 5.679349C457.422476 243.998409 444.516538 245.97646 434.73987 245.97646zM355.404987 415.359218c-12.014638 0-22.685675 8.583492-24.931832 20.821211-4.247744 23.169699 0.785899 46.616714 14.164604 66.021669 13.392008 19.382443 33.527604 32.417317 56.70549 36.654828 13.811564 2.517333 27.00812-6.603395 29.534663-20.393469 2.530636-13.788028-6.603395-27.01733-20.391423-29.532617-9.841136-1.807159-18.393929-7.335059-24.072255-15.57472-5.689582-8.216125-7.819083-18.176988-6.024204-28.02938 2.538823-13.788028-6.593162-26.995841-20.382213-29.535687C358.469789 415.511691 356.920504 415.359218 355.404987 415.359218zM269.647835 417.18889c-12.013615 0-22.682605 8.56098-24.920576 20.799722-15.424294 84.069721 40.421618 164.993798 124.487246 180.397626 13.745049 2.515287 27.00812-6.604418 29.534663-20.391423 2.527566-13.767562-6.604418-26.999934-20.382213-29.515221-56.532551-10.369162-94.089935-64.794725-83.72282-121.325229 2.52859-13.791098-6.604418-27.018354-20.393469-29.53671C272.71366 417.338293 271.165398 417.18889 269.647835 417.18889zM171.415556 389.482875c-12.012591 0-22.683628 8.558933-24.930809 20.799722-12.821003 69.933769 2.355651 140.664693 42.7435 199.175295 40.377616 58.511625 101.126188 97.792257 171.059957 110.61326 13.756305 2.51631 26.996864-6.603395 29.534663-20.392446 2.527566-13.789051-6.603395-26.996864-20.392446-29.535687-56.585763-10.366092-105.749486-42.161239-138.437979-89.508593-32.67519-47.368844-44.959981-104.611569-34.590819-161.207565 2.527566-13.767562-6.592139-26.996864-20.38119-29.53671C174.471149 389.609765 172.932096 389.482875 171.415556 389.482875z"  horiz-adv-x="1024" />

    
    <glyph glyph-name="quanbushangpin" unicode="&#58890;" d="M798.10618 603.335451l-76.966952 0c-33.222659 102.322433-112.962771 165.670204-209.151507 165.670204-96.18362 0-175.898149-63.34777-209.147414-165.670204l-76.940346 0c-43.245943 0-78.422094-35.877115-78.422094-80.028685l0-442.602444c0-44.094264 35.171034-79.958076 78.422094-79.958076l572.20622 0c41.518602 0 75.209936 33.112142 77.900208 74.741261 0.10847 0.933255 0.51984 1.704828 0.51984 2.638083l0 2.579755 0 21.198811L876.526227 523.306766C876.526227 567.463452 841.3511 603.335451 798.10618 603.335451M511.98772 711.137689c67.934229 0 122.713856-39.140439 151.573137-107.802238L360.445282 603.335451C389.304564 671.99725 444.057585 711.137689 511.98772 711.137689M794.34246 52.971701 229.662657 52.971701c-16.996093 0-30.782074 14.171768-30.782074 31.579229L198.880583 519.491881c0 17.407462 13.785981 31.549553 30.782074 31.549553l61.012585 0c-2.772136-17.886369-4.148483-35.737946-4.148483-53.255924 0-13.785981 0.907673-27.785833 2.720971-42.630936-14.417361-9.414417-23.203468-25.463951-23.203468-42.98193 0-28.255531 22.572088-51.266617 50.332339-51.266617 27.702945 0 50.302663 23.011086 50.302663 51.266617 0 17.390066-8.81476 33.537837-23.230074 42.98193-2.27788 15.047718-3.377934 29.02608-3.377934 42.630936 0 17.820877 1.647523 35.71134 4.889357 53.255924L679.018921 551.041434c3.237741-17.461697 4.885264-35.352159 4.885264-53.255924 0-13.811564-1.121544-27.951609-3.403516-43.134403-13.974269-9.475815-22.490224-25.469068-22.490224-42.478464 0-28.255531 22.546505-51.266617 50.28015-51.266617 27.760251 0 50.328245 23.011086 50.328245 51.266617 0 17.84646-9.006118 34.076096-23.805172 43.411719 1.757017 14.494109 2.606361 28.364001 2.606361 42.202171 0 17.60189-1.370207 35.44835-4.091178 53.255924l61.012585 0c16.944927 0 30.725792-14.141068 30.725792-31.549553l0-435.053514C825.016063 67.086164 811.260781 52.971701 794.34246 52.971701"  horiz-adv-x="1024" />

    
    <glyph glyph-name="huifu" unicode="&#58941;" d="M604.685959 67.173145c-12.741185 0-25.146727 5.587252-34.036187 15.328104-8.201799 8.987698-12.818957 20.570501-13.065574 32.717146l-0.049119 0.001023 0 99.085716 0.037862 0.662079c0.005117 0.170892 0.001023 0.388856 0.001023 0.615007 0 0.206708 0.00307 0.401136-0.002047 0.595564l-0.025583 0.591471c-0.554632 17.71036-14.95255 32.119535-32.095999 32.119535l-0.002047 0.045025c-83.145675-1.806135-143.162584-8.93244-194.442504-23.076578-60.822251-16.776082-111.035886-44.560892-153.512303-84.943624l-2.943029-2.797719c-0.716314-0.695848-1.432629-1.39579-2.15406-2.106987l-1.194198-1.176802-1.74269-1.27197c-7.883551-5.560646-17.131169-8.499581-26.745131-8.499581-25.959232 0-47.078225 21.567201-47.078225 48.077995-0.00307 7.15905 1.511423 14.046924 4.503571 20.464077 38.737256 85.677335 88.091314 157.226904 146.700153 212.674751 79.821977 75.517951 174.98229 119.017674 282.8316 129.289622 15.382339 1.682315 27.357068 15.388479 27.872814 31.9292l0.028653 0.636496c0.00307 0.141216-0.001023 0.366344-0.001023 0.599657 0 0.201591 0.00307 0.391926-0.002047 0.586354l-0.036839 1.308809 0 78.692247 0.049119 0.001023c0.245593 12.124132 4.852518 23.702841 13.032828 32.704866 8.896624 9.78997 21.314445 15.404852 34.06791 15.404852 11.001565 0 21.739117-3.998057 30.235628-11.257391l0.453325-0.397043c0.329505-0.288572 0.841158-0.738827 1.445932-1.331321L891.359051 447.758116c0.537236-0.441045 1.055029-0.906649 1.551332-1.39579l3.337002-3.13541c15.012925-15.061021 23.281239-35.218106 23.281239-56.756655 0-18.844184-6.515391-37.072337-18.34788-51.325969l-0.801249-0.966001-10.159384-9.829879L638.248356 81.513758c-0.76748-0.827855-1.546216-1.583055-2.351558-2.282996C627.264187 71.450565 616.201224 67.173145 604.685959 67.173145zM603.584881 116.243747l0.038886-0.001023c0-1.387603 0.776689-2.495844 1.269923-2.929726l0.052189 0.060375L866.427218 365.402433c4.554736 5.881964 7.051603 13.31833 7.051603 21.066805 0 9.079796-3.356444 17.529235-9.465582 23.858384l-0.046049 0.019443L604.888574 651.254833c-0.509606-0.472767-1.266853-1.586125-1.266853-2.958378l-0.038886-0.001023 0-77.117378c0.038886-0.975211 0.038886-1.804089 0.038886-2.446725 0-0.756223 0-1.76725-0.059352-2.951215-1.364067-39.336914-31.05018-71.994708-69.162196-76.019371l-0.240477-0.024559c-97.436146-9.253758-183.456289-48.587602-255.673054-116.910687-54.272068-51.345412-100.180654-118.075209-136.450718-198.335161l-0.155543-0.337691c-0.083911-0.178055-0.195451-0.475837-0.194428-1.00284 0-1.115404 0.51063-1.741667 0.829901-1.956561 1.049912 1.019213 2.098801 2.029216 3.158946 3.044336l6.67605 6.386454 0.233314 0c99.43671 90.332355 221.475184 111.206778 373.409548 114.379027l0.00307-0.068562c41.416272-0.295735 76.095096-34.43937 77.567633-76.428693 0.060375-1.178849 0.060375-2.176572 0.060375-2.923586 0-0.648776 0-1.486864-0.038886-2.478448L603.585905 116.243747z"  horiz-adv-x="1024" />

    
    <glyph glyph-name="nicheng" unicode="&#58914;" d="M212.366735 29.197228c0 0.591471 0.027629 1.188058 0.083911 1.777483C227.024573 183.659159 354.597087 300.929026 509.958504 300.929026c155.395186 0 282.995329-117.335359 297.510928-270.082228 0.048095-0.50449 0.075725-1.014096 0.083911-1.520633l0.24764-14.830777c0.13917-8.363482 6.959505-15.07023 15.32401-15.07023l0.792039 0c8.705266 0 15.661701 7.241938 15.313777 15.939017l0 0c-5.844102 146.033981-105.004519 265.929652-238.97372 303.722396 91.668793 38.530548 153.803945 133.852544 142.076856 241.686505-11.69332 107.524922-98.144274 194.251146-205.635427 206.247364C395.868049 782.7374 276.16476 672.445458 276.16476 534.72277c0-96.9204 59.287291-180.241061 143.493112-215.636199-133.974317-37.792745-233.137805-157.688415-238.980883-303.722396l0 0c-0.348947-8.698103 6.608511-15.939017 15.313777-15.939017l1.049912 0c8.463766 0 15.326057 6.861268 15.326057 15.326057L212.366735 29.197228zM306.826084 534.72277c0 112.00598 91.12644 203.13242 203.13242 203.13242s203.13242-91.12644 203.13242-203.13242S621.964484 331.59035 509.958504 331.59035 306.826084 422.71679 306.826084 534.72277z"  horiz-adv-x="1024" />

    
    <glyph glyph-name="yanzhengma" unicode="&#58912;" d="M851.918783 733.996303c-20.149922 19.164478-40.419572 28.882817-60.238966 28.882817-21.441335 0-34.235732-11.576663-34.726919-12.034081l-49.021483-44.016493c-11.263531 9.371438-25.397437 14.493086-40.22105 14.493086-17.248849 0-33.307593-6.788613-45.222971-19.1215-11.54801-11.955286-17.692964-27.634384-17.308201-44.157709 0.352017-15.086603 6.116301-29.229718 16.32992-40.258912l-85.177961-88.13634c-37.547151 17.270339-79.265298 26.391067-120.856555 26.391067-78.83244 0-152.21782-31.012318-206.630081-87.320765-52.740178-54.580083-80.821747-126.195144-79.075986-201.654766 1.74883-75.504648 33.147958-145.806807 88.414679-197.952444 36.615942-34.55705 82.245166-58.909691 131.953288-70.423933l5.350868-1.236154-1.11438 48.272423-3.049452 0.839111c-37.506219 10.331299-72.242348 29.864168-100.457969 56.486502-46.088688 43.49563-72.276117 102.124935-73.734328 165.086919-1.454118 62.923098 21.965268 122.648364 65.949015 168.170141 45.348837 46.927799 106.526175 72.773444 172.267459 72.773444 31.622208 0 62.408375-6.034437 91.514273-17.939581l37.302581-21.240767 144.275941 149.311631-31.222095 29.474288c-2.925632 2.759857-4.587482 6.470365-4.680603 10.453073-0.093121 3.977591 1.391696 7.761778 4.188392 10.653641 2.886747 2.995217 6.788613 4.64274 10.981099 4.64274 3.922333 0 7.647167-1.473561 10.486842-4.157693l31.166837-29.411867 56.599066 58.569954 0.275269 0.318248c0.354064 0.440022 8.745175 10.756995 23.288402 10.756995 9.871835 0 20.360723-4.776793 31.171953-14.198374 12.488429-10.883885 18.949584-22.072715 19.205411-33.262568 0.320295-14.136975-9.598612-23.771403-9.832949-24.000624L609.361445 410.632567l22.061458-36.996612c42.206264-88.861864 25.252127-192.036711-43.220361-262.889409-23.694655-24.527626-52.065819-43.383066-84.328617-56.041364l-2.77009-1.088798 1.169639-49.345871 5.477758 1.834788c44.053332 14.763239 82.640162 39.063691 114.690112 72.225975 84.952834 87.914282 103.471606 218.59253 46.514383 326.134849l216.815047 224.619804C887.221824 630.672052 920.528394 668.730856 851.918783 733.996303zM546.148751 276.469961c-0.796132 34.480302-15.131629 66.580394-40.364313 90.39273-24.400736 23.020296-56.404638 35.700083-90.119507 35.700083-36.016285 0-69.543889-14.174837-94.4133-39.915082-24.079418-24.919553-36.903491-57.615209-36.109406-92.068905 0.796132-34.478256 15.133675-66.582441 40.36943-90.394776 24.393573-23.020296 56.397475-35.698037 90.110297-35.698037 36.016285 0 69.549006 14.174837 94.418416 39.915082C534.121833 209.317539 546.945907 242.016265 546.148751 276.469961zM498.786047 275.391397c0.50756-21.920242-7.65433-42.730197-22.982434-58.589396-15.848966-16.394389-37.21867-25.424042-60.174498-25.421996-21.491477 0-41.888016 8.080026-57.43306 22.750143-16.061814 15.151072-25.187659 35.573193-25.694195 57.509808-0.50449 21.917172 7.656377 42.730197 22.986527 58.59349 15.84692 16.399505 37.216623 25.431206 60.172451 25.431206 21.491477 0 41.885969-8.077979 57.425897-22.748097C489.148549 317.757297 498.278487 297.328012 498.786047 275.391397z"  horiz-adv-x="1024" />

    
    <glyph glyph-name="interchange" unicode="&#58922;" d="M859.479 623.862c0 7.611-3.807 17.764-11.417 25.376l-152.249 152.243c-13.958 13.958-46.944 10.151-49.479 10.151l-432.636 0c-24.104 0-44.404-19.032-44.404-44.405v-758.692c0-24.109 19.029-44.402 44.404-44.402h602.644c24.105 0 44.406 19.030 44.406 44.402l-1.269 615.327zM784.624 623.862h-91.346c-12.688 0-21.568 10.151-21.568 21.572v91.345l112.914-112.917zM775.744 25.030h-522.714c-12.688 0-21.57 10.147-21.57 21.572v681.295c0 12.69 10.149 21.568 21.57 21.568h355.248v-144.634c0-24.104 19.027-44.407 44.401-44.407h144.631v-515.097c-0.001-10.15-10.146-20.297-21.566-20.297v0zM499.16 508.41c0-6.344-5.079-11.419-11.416-11.419l-181.429-0c-6.344 0-11.42 5.079-11.42 11.419v40.597c0 6.344 5.076 11.417 11.42 11.417h181.429c6.34 0 11.416-5.077 11.416-11.417v-40.597zM733.879 384.072c0-6.342-5.077-11.412-11.417-11.412h-416.143c-6.346 0-11.421 5.073-11.421 11.412v40.601c0 6.345 5.075 11.418 11.421 11.418h417.404c6.348 0 11.418-5.074 11.418-11.418v-40.601l-1.262 0zM733.879 259.737c0-6.34-5.077-11.416-11.417-11.416l-416.143 0c-6.346 0-11.421 5.079-11.421 11.416v39.332c0 6.344 5.075 11.422 11.421 11.422h417.404c6.348 0 11.418-5.083 11.418-11.422v-39.332l-1.262-0zM733.879 132.869c0-6.347-5.077-11.415-11.417-11.415l-416.143-0c-6.346 0-11.421 5.071-11.421 11.415v40.602c0 6.337 5.075 11.419 11.421 11.419h417.404c6.348 0 11.418-5.084 11.418-11.419v-40.602l-1.262 0zM6.949 293.143l44.801-38.050 39.891-33.754c4.907-3.681 11.658-0.612 11.658 5.524v49.096h46.585v44.187h-46.583v49.711c0 6.138-7.364 9.205-11.66 5.525l-39.89-33.756-44.801-38.050c-3.68-2.454-3.68-7.364-0.001-10.433zM32.112 476.028v9.205c0 9.819 7.978 17.183 17.183 17.183h101.205v-44.186h-101.204c-9.819 0-17.184 7.978-17.184 17.798zM1021.902 429.022l-44.801 38.050-39.891 33.754c-4.907 3.681-11.658 0.612-11.658-5.524v-49.096h-46.584v-44.187h46.58v-49.711c0-6.138 7.365-9.205 11.661-5.525l39.89 33.756 44.802 38.050c3.682 2.453 3.682 7.363 0.001 10.433zM996.74 246.137v-9.205c0-9.819-7.978-17.183-17.183-17.183l-101.204 0v44.186h101.203c9.819-0 17.184-7.978 17.184-17.798z"  horiz-adv-x="1025" />

    
    <glyph glyph-name="you1" unicode="&#58918;" d="M380.523573 67.585537 380.523573 67.585537c11.468193-11.552104 30.123065-11.644201 41.706891-0.148379L747.630578 389.878894c5.807263 5.747911 8.725732 13.351076 8.725732 20.921495 0 7.483438-2.862187 15.005762-8.549723 20.74958-0.116657 0.116657-0.264013 0.144286-0.38067 0.264013-0.474814 0.500397-0.591471 1.147126-1.090844 1.651616l-322.452993 325.390905c-11.468193 11.552104-30.124088 11.640108-41.707914 0.171915-11.552104-11.491729-11.640108-30.119995-0.176009-41.699728l303.414381-306.144562-304.709887-301.93161C369.150548 97.788419 369.091196 79.16527 380.523573 67.585537L380.523573 67.585537zM380.523573 67.585537"  horiz-adv-x="1024" />

    
    <glyph glyph-name="pinglun" unicode="&#58958;" d="M779.007705 777.808134 269.597693 777.808134c-65.779146 0-119.085212-58.322313-119.085212-124.769678l0-329.954851c0-66.447365 52.062749-110.914112 117.841895-110.914112l47.136553 0 0-141.40966 164.978449 141.40966 306.388109 0c65.75561 0 117.839849 44.466748 117.839849 110.914112l0 329.954851C904.696312 719.485821 844.763314 777.808134 779.007705 777.808134zM857.560782 323.083605c0-44.053332-35.513842-63.777559-70.704318-63.777559l-306.388109 0-17.446347 0-13.235442-11.346419-87.161129-74.709539 0 38.919405 0 47.136553-47.136553 0-47.136553 0c-35.192523 0-70.706365 19.724227-70.706365 63.777559l0 329.954851c0 41.35999 33.626865 77.633125 71.949682 77.633125l509.411035 0c40.368406 0 78.553077-37.72316 78.553077-77.633125L857.559758 323.083605zM339.057671 494.988814m-47.136553 0a46.063 46.063 0 1 0 94.273107 0 46.063 46.063 0 1 0-94.273107 0ZM527.603885 494.988814m-47.136553 0a46.063 46.063 0 1 0 94.273107 0 46.063 46.063 0 1 0-94.273107 0ZM716.150098 494.988814m-47.136553 0a46.063 46.063 0 1 0 94.273107 0 46.063 46.063 0 1 0-94.273107 0Z"  horiz-adv-x="1024" />

    
    <glyph glyph-name="yaoqing" unicode="&#58961;" d="M696 305q8-7 18.5-4.5t16.5 12.5q4 7 4 18-3 10-10 17-3 2-7 4.5t-7.5 4.5-7.5 4-7.5 4-8 4-8.5 4q4 4 8 7.5t7.5 8 6.5 8.5 6 9l6 8q3 5 5.5 9.5t4.5 9.5l4 10q19 43 19 93 0 63-31 116t-84.5 84-117.5 31q-96 0-163-68.5t-67-164.5q0-46 17.5-88.5t50.5-74.5q-101-47-161.5-140.5t-60.5-204.5q0-4 1.5-8t3.5-7 5-5.5 7-3.5 8-1q11 0 18 7t7 18q0 103 59.5 188.5t156.5 120.5q36-21 77.5-28t82.5 0.5 77 27.5q38-14 64-30zM694 534q0-20-3.5-38t-11.5-35q-11-27-39-55-52-52-126.5-52t-127.5 52.5-53 127 53 127 127 52.5q85 0 140-65 41-51 41-114zM889 143l-95 95q-8 8-20 8t-20-8q-7-8-8-18v-5q0-2 1-4t1.5-3.5 1.5-3.5l4-3 50-49h-172q-11 0-19-8t-8-19q0-2 0.5-4.5t1-4.5 1.5-4l4-4q1-2 2.5-3.5t3.5-2.5 4.5-2 4.5-1.5 5-0.5h172l-50-49q-7-9-8-19 0-7 2-11.5t6-7.5q6-8 19-8t19 8l95 95q1 1 2 2.5t2 3.5 2 3q4 10 0 20 0 4-4 8z"  horiz-adv-x="1024" />

    
    <glyph glyph-name="zhifubao" unicode="&#58925;" d="M505.856-84.992c260.096 0 468.992 210.944 468.992 468.992C976.896 644.096 765.952 855.04 505.856 855.04 247.808 855.04 36.864 644.096 36.864 384 36.864 125.952 247.808-84.992 505.856-84.992L505.856-84.992zM460.8 558.08l0 77.824 86.016 0 0-77.824 174.08 0 0-34.816-174.08-2.048 0-47.104 143.36-2.048c0 0-2.048-26.624-20.48-75.776-18.432-49.152-34.816-73.728-34.816-73.728l278.528-92.16c0 0-10.24-26.624-22.528-49.152-12.288-22.528-28.672-47.104-28.672-47.104l-266.24 126.976c0 0-51.2-55.296-102.4-79.872-51.2-24.576-110.592-38.912-174.08-24.576-63.488 14.336-108.544 55.296-100.352 131.072 8.192 75.776 88.064 100.352 153.6 100.352s192.512-43.008 192.512-43.008 10.24 24.576 20.48 51.2c10.24 26.624 12.288 49.152 12.288 49.152L329.728 445.44l0 26.624 131.072 0 0 51.2-161.792-2.048 0 34.816L460.8 556.032 460.8 558.08zM532.48 293.888c0 0-79.872-94.208-174.08-94.208-94.208 0-112.64 45.056-112.64 77.824 0 32.768 20.48 67.584 100.352 71.68C423.936 355.328 532.48 293.888 532.48 293.888L532.48 293.888zM532.48 293.888"  horiz-adv-x="1024" />

    
    <glyph glyph-name="wodeshouru" unicode="&#58923;" d="M739.288 788.939c-39.519 64.102-110.159 107.061-190.819 107.061-77.637 0-146.168-39.713-186.415-99.864-205.597-37.513-362.054-217.514-362.054-433.786v-48.917c0-243.421 198.042-441.433 441.43-441.433h187.239c243.42 0 441.452 198.013 441.452 441.433l-0 48.917c0 205.133-140.886 377.352-330.832 426.588v0zM548.465 833.714c89.312 0 161.959-72.646 161.959-161.958 0-16.49-2.56-32.35-7.215-47.314h-309.484c-4.594 14.965-7.21 30.824-7.21 47.314-0.008 89.312 72.642 161.958 161.95 161.958v0zM1007.841 313.435c0-209.077-170.099-379.197-379.171-379.197l-187.239 0c-209.075 0-379.171 170.117-379.171 379.197v48.917c0 170.626 113.331 315.146 268.654 362.585-4.193-17.091-6.661-34.822-6.661-53.176 0-16.244 1.867-32.033 5.158-47.314h-31.478c-16.373 0-29.643-13.27-29.643-29.643s13.27-29.663 29.643-29.663h494.027c16.389 0 29.636 13.291 29.636 29.663s-13.25 29.643-29.636 29.643h-24.388c3.288 15.276 5.136 31.070 5.136 47.314 0 14.532-1.504 28.722-4.168 42.5 139.968-55.797 239.306-192.28 239.306-351.911v-48.917l-0.006 0.002zM653.61 288.471c16.395 0 29.639 13.296 29.639 29.67 0 16.372-13.248 29.636-29.639 29.636h-62.57l59.421 59.424c11.574 11.574 11.574 30.344 0 41.913-11.579 11.603-30.37 11.603-41.919 0l-73.49-73.487-73.472 73.487c-11.572 11.603-30.342 11.603-41.914 0-11.574-11.571-11.574-30.341 0-41.913l59.424-59.424h-62.597c-16.373 0-29.643-13.261-29.643-29.636s13.27-29.67 29.643-29.67h88.921v-59.253h-88.921c-16.373 0-29.643-13.267-29.643-29.64 0-16.392 13.27-29.666 29.643-29.666h88.921v-79.035c0-16.378 13.264-29.64 29.637-29.64s29.643 13.263 29.643 29.64v79.035h88.916c16.395 0 29.639 13.269 29.639 29.666 0 16.374-13.243 29.64-29.639 29.64h-88.916v59.253l88.915-0z"  horiz-adv-x="1071" />

    
    <glyph glyph-name="vip1" unicode="&#58891;" d="M397.620223 371.659024c3.912992 5.11699 7.223986 7.524985 16.554968 7.524985l1.203998 0 0 22.574956-48.761905 0c-1.504997 0-1.805996 0-3.009994-2.106996l-100.533804-128.827748-100.533804 129.429747c-0.902998 1.504997-1.203998 1.504997-2.708995 1.504997L110.165785 401.758965l0-22.574956L111.369782 379.184009c9.330982 0 12.641975-2.407995 16.554968-7.524985 0.300999-0.601999 0.902998-1.203998 1.805996-2.106996 21.972957-30.099941 108.660788-135.449735 133.34274-168.258671 24.380952 32.808936 111.068783 138.15873 133.34274 168.559671C396.717225 370.455026 397.319224 371.057025 397.620223 371.659024zM1023.699001 352.696061c-0.902998 18.059965-7.825985 35.216931-19.564962 48.761905l-124.914756 143.27572c-15.049971 17.457966-37.022928 27.390947-60.199882 27.390947L360.898295 572.124633c-49.363904 0.300999-209.79659 0-209.79659 0-7.223986 0-16.554968-1.805996-28.293945-15.651969-27.691946-32.507937-90.299824-104.145797-111.369782-129.128748-14.146972-16.554968-16.253968-40.032922 0-64.413874 34.313933-40.032922 128.526749-148.091711 223.341564-257.354497 13.544974-15.651969 21.972957-15.952969 27.992945-15.952969 0.902998 0 1.805996 0 2.708995 0l549.624927 0c25.58495 0 49.965902 12.340976 65.015873 33.410935l128.827748 179.39565C1019.485009 316.877131 1024.601999 334.937096 1023.699001 352.696061zM240.79953 150.424456c-75.550852 87.28983-173.97766 196.552616-201.368607 228.458554-7.524985 7.825985-7.524985 21.069959 0 32.206937 16.855967 20.166961 75.550852 86.687831 97.824809 112.57378 16.554968 19.263962 31.002939 16.253968 36.721928 16.253968L352.169312 539.917695c21.370958 0 26.487948-4.815991 36.420929-16.253968 21.370958-24.681952 88.493827-101.737801 97.824809-112.57378 8.126984-11.738977 5.718989-22.875955 0-32.206937-31.604938-36.721928-126.118754-141.770723-201.067607-228.458554-10.835979-12.641975-17.758965-12.942975-22.273956-12.942975C258.257496 137.782481 251.334509 138.08348 240.79953 150.424456zM982.763081 321.091123l-128.827748-179.39565c-9.029982-12.641975-23.477954-19.865961-38.828924-19.865961L362.403292 121.829512c-22.574956 0-34.614932 26.487948-19.865961 43.644915 74.045855 84.881834 139.663727 160.432687 171.569665 197.756614 13.243974 15.952969 15.952969 45.149912 0 64.413874-6.621987 7.524985-32.808936 38.527925-59.597884 69.229865-14.748971 17.156966-2.708995 43.343915 19.865961 43.343915L818.718401 540.218695c13.845973 0 26.788948-6.019988 36.119929-16.253968l124.914756-143.27572C994.502058 363.833039 995.706055 339.151088 982.763081 321.091123zM650.45973 229.286302l22.875955 0 0 211.000588c0 4.213992-1.203998 6.621987-6.621987 6.621987l-21.069959 0 11.136978 34.614932 38.828924 0c14.748971 0 22.273956-5.417989 22.273956-18.059965l0-233.876543 27.390947 0 0-35.216931-105.349794 0L650.45973 229.286302z"  horiz-adv-x="1024" />

    
    <glyph glyph-name="vip2" unicode="&#58892;" d="M397.620223 371.659024c3.912992 5.11699 7.223986 7.524985 16.554968 7.524985l1.203998 0 0 22.574956-48.761905 0c-1.504997 0-1.805996 0-3.009994-2.106996l-100.533804-128.827748-100.533804 129.429747c-0.902998 1.504997-1.203998 1.504997-2.708995 1.504997L110.165785 401.758965l0-22.574956L111.369782 379.184009c9.330982 0 12.641975-2.407995 16.554968-7.524985 0.300999-0.601999 0.902998-1.203998 1.805996-2.106996 21.972957-30.099941 108.660788-135.449735 133.34274-168.258671 24.380952 32.808936 111.068783 138.15873 133.34274 168.559671C396.717225 370.455026 397.319224 371.057025 397.620223 371.659024zM1023.699001 352.696061c-0.902998 18.059965-7.825985 35.216931-19.564962 48.761905l-124.914756 143.27572c-15.049971 17.457966-37.022928 27.390947-60.199882 27.390947L360.898295 572.124633c-49.363904 0.300999-209.79659 0-209.79659 0-7.223986 0-16.554968-1.805996-28.293945-15.651969-27.691946-32.507937-90.299824-104.145797-111.369782-129.128748-14.146972-16.554968-16.253968-40.032922 0-64.413874 34.313933-40.032922 128.526749-148.091711 223.341564-257.354497 13.544974-15.651969 21.972957-15.952969 27.992945-15.952969 0.902998 0 1.805996 0 2.708995 0l549.624927 0c25.58495 0 49.965902 12.340976 65.015873 33.410935l128.827748 179.39565C1019.485009 316.877131 1024.601999 334.937096 1023.699001 352.696061zM240.79953 150.424456c-75.550852 87.28983-173.97766 196.552616-201.368607 228.458554-7.524985 7.825985-7.524985 21.069959 0 32.206937 16.855967 20.166961 75.550852 86.687831 97.824809 112.57378 16.554968 19.263962 31.002939 16.253968 36.721928 16.253968L352.169312 539.917695c21.370958 0 26.487948-4.815991 36.420929-16.253968 21.370958-24.681952 88.493827-101.737801 97.824809-112.57378 8.126984-11.738977 5.718989-22.875955 0-32.206937-31.604938-36.721928-126.118754-141.770723-201.067607-228.458554-10.835979-12.641975-17.758965-12.942975-22.273956-12.942975C258.257496 137.782481 251.334509 138.08348 240.79953 150.424456zM982.763081 321.091123l-128.827748-179.39565c-9.029982-12.641975-23.477954-19.865961-38.828924-19.865961L362.403292 121.829512c-22.574956 0-34.614932 26.487948-19.865961 43.644915 74.045855 84.881834 139.663727 160.432687 171.569665 197.756614 13.243974 15.952969 15.952969 45.149912 0 64.413874-6.621987 7.524985-32.808936 38.527925-59.597884 69.229865-14.748971 17.156966-2.708995 43.343915 19.865961 43.343915L818.718401 540.218695c13.845973 0 26.788948-6.019988 36.119929-16.253968l124.914756-143.27572C994.502058 363.833039 995.706055 339.151088 982.763081 321.091123zM650.760729 229.286302l125.516755 0 0-34.915932-152.305703 0c-16.554968 0-27.992945 16.554968-23.477954 31.905938 15.35097 47.557907 62.306878 77.958848 97.22281 98.426808 18.360964 10.835979 28.293945 18.661964 35.517931 23.477954 28.895944 35.517931 10.534979 96.319812-41.236919 96.018812-39.129924-0.300999-50.266902-36.119929-51.470899-71.336861l-38.828924 12.039976c3.611993 58.092887 36.119929 99.329806 96.319812 99.329806 53.276896 0 87.891828-40.032922 90.299824-90.299824C791.628454 290.389183 673.034685 284.670194 650.760729 229.286302z"  horiz-adv-x="1024" />

    
    <glyph glyph-name="vip3" unicode="&#58893;" d="M397.620223 371.659024c3.912992 5.11699 7.223986 7.524985 16.554968 7.524985l1.203998 0 0 22.574956-48.761905 0c-1.504997 0-1.805996 0-3.009994-2.106996l-100.533804-128.827748-100.533804 129.429747c-0.902998 1.504997-1.203998 1.504997-2.708995 1.504997L110.165785 401.758965l0-22.574956L111.369782 379.184009c9.330982 0 12.641975-2.407995 16.554968-7.524985 0.300999-0.601999 0.902998-1.203998 1.805996-2.106996 21.972957-30.099941 108.660788-135.449735 133.34274-168.258671 24.380952 32.808936 111.068783 138.15873 133.34274 168.559671C396.717225 370.455026 397.319224 371.057025 397.620223 371.659024zM1023.699001 352.696061c-0.902998 18.059965-7.825985 35.216931-19.564962 48.761905l-124.914756 143.27572c-15.049971 17.457966-37.022928 27.390947-60.199882 27.390947L360.898295 572.124633c-49.363904 0.300999-209.79659 0-209.79659 0-7.223986 0-16.554968-1.805996-28.293945-15.651969-27.691946-32.507937-90.299824-104.145797-111.369782-129.128748-14.146972-16.554968-16.253968-40.032922 0-64.413874 34.313933-40.032922 128.526749-148.091711 223.341564-257.354497 13.544974-15.651969 21.972957-15.952969 27.992945-15.952969 0.902998 0 1.805996 0 2.708995 0l549.624927 0c25.58495 0 49.965902 12.340976 65.015873 33.410935l128.827748 179.39565C1019.485009 316.877131 1024.601999 334.937096 1023.699001 352.696061zM240.79953 150.424456c-75.550852 87.28983-173.97766 196.552616-201.368607 228.458554-7.524985 7.825985-7.524985 21.069959 0 32.206937 16.855967 20.166961 75.550852 86.687831 97.824809 112.57378 16.554968 19.263962 31.002939 16.253968 36.721928 16.253968L352.169312 539.917695c21.370958 0 26.487948-4.815991 36.420929-16.253968 21.370958-24.681952 88.493827-101.737801 97.824809-112.57378 8.126984-11.738977 5.718989-22.875955 0-32.206937-31.604938-36.721928-126.118754-141.770723-201.067607-228.458554-10.835979-12.641975-17.758965-12.942975-22.273956-12.942975C258.257496 137.782481 251.334509 138.08348 240.79953 150.424456zM982.763081 321.091123l-128.827748-179.39565c-9.029982-12.641975-23.477954-19.865961-38.828924-19.865961L362.403292 121.829512c-22.574956 0-34.614932 26.487948-19.865961 43.644915 74.045855 84.881834 139.663727 160.432687 171.569665 197.756614 13.243974 15.952969 15.952969 45.149912 0 64.413874-6.621987 7.524985-32.808936 38.527925-59.597884 69.229865-14.748971 17.156966-2.708995 43.343915 19.865961 43.343915L818.718401 540.218695c13.845973 0 26.788948-6.019988 36.119929-16.253968l124.914756-143.27572C994.502058 363.833039 995.706055 339.151088 982.763081 321.091123zM688.987654 443.898883c-37.022928 0.300999-47.256908-24.079953-48.460905-52.674897l-38.527925 10.534979c2.708995 52.975897 35.81893 82.473839 88.493827 82.473839 45.751911 0 89.396825-23.477954 89.396825-73.142857 0-21.671958-7.223986-39.731922-23.477954-53.577895-2.708995-2.708995-5.417989-4.514991-9.029982-6.922986 6.621987-3.310994 11.738977-6.922986 16.855967-10.835979 17.156966-13.845973 24.982951-33.109935 24.982951-56.28689 0-55.383892-44.547913-90.299824-98.125808-90.299824-55.684891 0-90.299824 21.671958-96.620811 78.259847l40.93592 13.544974c3.009994-37.323927 16.554968-54.179894 57.189888-54.179894 27.992945 0 53.878895 15.952969 53.878895 46.955908 0 16.554968-4.213992 27.691946-13.544974 37.022928-8.728983 8.126984-18.360964 15.35097-32.808936 15.35097l-30.400941 0 8.728983 34.915932 22.273956 0c11.437978 0 18.962963 5.417989 24.982951 11.136978 9.330982 7.825985 11.738977 18.059965 11.738977 30.70194C737.44856 433.965902 712.766608 443.898883 688.987654 443.898883z"  horiz-adv-x="1024" />

    
    <glyph glyph-name="jiaoyixinxi" unicode="&#58894;" d="M512 873.73913C241.530435 873.73913 22.26087 654.469565 22.26087 384c0-270.491826 219.269565-489.73913 489.73913-489.73913s489.73913 219.247304 489.73913 489.73913C1001.73913 654.469565 782.491826 873.73913 512 873.73913zM512-61.729391c-245.826783 0-445.729391 199.902609-445.729391 445.729391S266.217739 829.729391 512 829.729391c245.826783 0 445.729391-199.94713 445.729391-445.729391S757.826783-61.729391 512-61.729391zM698.056348 555.25287 714.217739 476.204522 214.973217 476.204522 188.393739 433.619478 722.944 433.619478 858.490435 433.441391ZM824.809739 334.202435 290.281739 334.202435 154.713043 334.380522 315.14713 212.546783 298.985739 291.617391 798.230261 291.617391Z"  horiz-adv-x="1024" />

    
    <glyph glyph-name="message-copy" unicode="&#58956;" d="M752 504c-33.12 0-60-26.88-60-60s26.88-60 60-60c33.12 0 60 26.88 60 60 0 33.12-26.88 60-60 60v0zM512 84c-35.040 0-68.88 4.080-101.4 11.010l-141.24-84.9 1.89 139.17c-108.27 65.1-179.25 172.74-179.25 294.72 0 198.81 188.040 360 420 360 231.96 0 420-161.19 420-360 0-198.84-188.040-360-420-360v0zM512 864c-265.080 0-480-188.070-480-420 0-132.57 70.35-250.62 180-327.57v-212.43l210.27 127.59c29.1-4.8 59.040-7.59 89.73-7.59 265.080 0 480 188.040 480 420 0 231.93-214.92 420-480 420v0zM272 504c-33.12 0-60-26.88-60-60s26.88-60 60-60c33.12 0 60 26.88 60 60 0 33.12-26.88 60-60 60v0zM512 504c-33.12 0-60-26.88-60-60s26.88-60 60-60c33.12 0 60 26.88 60 60 0 33.12-26.88 60-60 60v0z"  horiz-adv-x="1024" />

    
    <glyph glyph-name="zhanghumingxi" unicode="&#58934;" d="M798.009478 768.315946 162.028768 768.315946c-54.16155 0-98.237395-44.075845-98.237395-98.237395l0-157.500127L12.982174 512.578424c-6.78145 0-12.279674-5.498224-12.279674-12.279674l0-39.550785c0-6.78145 5.498224-12.279674 12.279674-12.279674l50.808176 0 0-128.283712L12.982174 320.184579c-6.78145 0-12.279674-5.498224-12.279674-12.280698l0-39.551808c0-6.782473 5.498224-12.280698 12.279674-12.280698l50.808176 0 0-160.574139c0-54.16155 44.075845-94.14417 98.237395-94.14417l635.014708 0c54.194296 0 98.237395 39.98262 98.237395 94.14417l0 43.979654 0.966001 530.602683C896.246873 724.240101 852.171028 768.315946 798.009478 768.315946zM129.28297 95.496214 129.28297 256.070352l49.801243 0c6.78145 0 12.279674 5.498224 12.279674 12.280698l0 39.551808c0 6.782473-5.498224 12.280698-12.279674 12.280698l-49.801243 0L129.28297 448.46829l49.801243 0c6.78145 0 12.279674 5.498224 12.279674 12.279674l0 39.550785c0 6.78145-5.498224 12.279674-12.279674 12.279674l-49.801243 0L129.28297 670.078551c0 18.042935 14.702863 32.745798 32.745798 32.745798l478.311737 0 0-624.328321c0-4.336772 0.221034-8.575306 0.639566-12.675694L162.028768 65.820334C143.985834 65.820334 129.28297 77.420533 129.28297 95.496214zM831.835887 95.496214c0-18.075681-16.71673-29.67588-34.792411-29.67588l-93.38897 0c0.417509 4.100388 0.639566 8.337899 0.639566 12.675694L704.294073 702.824349l93.715405 0c18.075681 0 32.745798-14.702863 32.745798-32.745798l1.023306-561.880037c0-0.648776 0.021489-1.290389 0.057305-1.929955L831.835887 95.496214zM519.819594 391.381108c8.131191 0 14.7264 9.963932 14.7264 17.326621 0 7.349385-6.593162 17.325597-14.7264 17.325597l-60.838623 0 44.422745 72.143087c1.077541 3.278673-3.416819 14.537088-10.515494 18.102287-7.097652 3.585665-18.478863 1.276063-22.433942-5.15337l-52.390207-85.10633-3.500731 0-52.387138 85.10633c-6.579859 9.772574-16.154935 8.739035-23.237237 5.15337-7.096628-3.581572-11.539824-13.109576-10.512425-18.102287l44.417629-72.143087L308.499701 426.033325c-8.132214 0-14.729469-9.976212-14.729469-17.325597 0-7.347339 6.596232-17.326621 14.729469-17.326621l89.319282 0L397.818983 347.064786 308.499701 347.064786c-8.132214 0-14.729469-9.977235-14.729469-17.328667 0-7.349385 6.596232-17.326621 14.729469-17.326621l89.319282 0 0-53.859675c0-7.347339 9.80225-13.31526 17.937534-13.31526 8.132214 0 17.929348 5.967922 17.929348 13.31526l0 53.859675 86.133729 0c8.131191 0 14.7264 9.962909 14.7264 17.326621 0 7.351432-6.593162 17.328667-14.7264 17.328667l-86.133729 0 0 44.316322L519.819594 391.381108z"  horiz-adv-x="1024" />

    
    <glyph glyph-name="yewuyeicon09-copy" unicode="&#58895;" d="M924.784 558.39c-22.566 53.351-54.864 101.26-95.998 142.395-41.136 41.135-89.044 73.434-142.396 96-55.247 23.368-113.921 35.215-174.389 35.215s-119.14-11.848-174.388-35.216c-53.352-22.566-101.26-54.865-142.394-96-41.136-41.135-73.436-89.044-96-142.395-23.368-55.248-35.217-113.922-35.217-174.39 0-22.35 1.664-44.807 4.942-66.747 2.132-14.268 15.432-24.107 29.698-21.974 14.268 2.133 24.106 15.429 21.974 29.696-2.9 19.393-4.368 39.251-4.368 59.025 0 218.221 177.534 395.758 395.754 395.758s395.756-177.536 395.756-395.758-177.536-395.756-395.756-395.756c-108.136 0-209.124 42.796-284.358 120.506-10.036 10.365-26.574 10.632-36.938 0.597s-10.632-26.573-0.598-36.938c41.324-42.683 89.808-76.24 144.104-99.739 56.224-24.333 116.042-36.671 177.79-36.671 60.468 0 119.142 11.849 174.39 35.216 53.352 22.566 101.26 54.864 142.396 95.999 41.134 41.135 73.432 89.043 95.998 142.394 23.368 55.249 35.216 113.922 35.216 174.391s-11.85 119.141-35.218 174.39zM135.988 232.376c-21.444 0-38.892-17.446-38.892-38.888 0-21.444 17.448-38.889 38.892-38.889 21.442 0 38.886 17.446 38.886 38.889-0.001 21.444-17.445 38.888-38.886 38.888zM473.868 614.888c-10.938 9.686-27.652 8.673-37.338-2.262l-143.82-162.377c-9.684-10.934-8.67-27.651 2.264-37.336 5.034-4.458 11.292-6.651 17.526-6.651 7.308 0 14.584 3.013 19.81 8.914l12.516 14.13 0-83.195c0-14.608 11.842-26.45 26.45-26.45h81.601l-133.874-127.606c-10.574-10.078-10.974-26.821-0.896-37.394 5.198-5.454 12.168-8.201 19.15-8.201 6.556 0 13.126 2.424 18.244 7.304l174.045 165.897h137.1c14.608 0 26.448 11.842 26.448 26.45v102.065c0 14.608-11.841 26.45-26.448 26.45h-80.81l42.55 52.232c6.448 7.914 7.766 18.835 3.384 28.057s-13.68 15.098-23.89 15.098h-138.429l6.678 7.539c9.687 10.934 8.672 27.651-2.261 37.336zM492.51 372.561h-94.785v49.166h94.785v-49.166zM640.196 372.561h-94.786v49.166h94.786v-49.166zM552.218 517.113l-34.612-42.487h-132.638l37.63 42.487h129.62zM542.93 296.786c-14.608 0-26.45-11.843-26.45-26.45v-83.508c0-14.607 11.842-26.45 26.45-26.45h168.562c14.608 0 26.45 11.842 26.45 26.45s-11.842 26.45-26.45 26.45h-142.112v57.058c0 14.607-11.842 26.45-26.45 26.45z"  horiz-adv-x="1025" />

    
    <glyph glyph-name="yanjing2" unicode="&#58917;" d="M526.530629 850.463875M962.347157 492.621565c0 10.539822-9.004897 19.44239-19.544719 19.44239-6.958329 0-12.177076-4.40012-16.474868-9.41421-3.479165-3.78615-9.107225-9.925852-13.916658-14.735285-60.27141-63.136604-230.648146-224.406116-401.229539-224.406116C339.98601 263.508344 169.916259 424.880184 109.849505 488.016788c-3.581493 4.093135-16.986509 18.316778-17.293495 18.521435-3.172179 2.251224-6.958329 3.581493-11.051464 3.581493-10.539822 0-19.851704-9.209553-19.851704-19.749375 0-5.935045 4.502448-11.153792 4.40012-11.256121 32.540422-36.4289 90.458279-96.393325 161.98581-150.218047l-58.429499-59.145798c-4.195463-4.297792-4.604777-11.051464-0.818627-15.758569l0-0.102328c4.707105-5.832717 13.507345-5.935045 18.316778-0.204657l54.745678 64.978515c34.791646-25.070451 72.550814-48.401319 111.947237-66.615769l-59.555111-82.681323c-4.093135-5.62806-2.455881-13.609673 3.581493-17.191166l1.432597-0.818627c5.423404-3.172179 12.381733-1.637254 15.963226 3.683821l58.736484 88.309383c36.531228-15.04227 74.290397-25.377436 112.254222-28.651944l0-89.025682c0-6.549016 5.321075-11.870091 11.870091-11.870091l1.22794 0c6.549016 0 11.870091 5.321075 11.870091 11.870091l0 87.90007c34.996303 0 70.094934 6.549016 104.374938 17.702808l54.950335-81.146398c3.479165-5.116419 10.335165-6.753672 15.758569-3.581493l0 0c6.344359 3.683821 7.879285 12.074748 3.274508 17.702808l-58.531828 72.346158c43.080244 15.860897 84.830219 38.577796 123.510343 64.262216l60.169082-56.587589c4.707105-4.40012 11.972419-4.297792 16.577196 0.204657l1.22794 1.22794c4.604777 4.604777 4.604777 11.972419 0.102328 16.679524l-53.517738 55.564305c80.020785 57.508544 144.896972 124.94294 179.176976 163.520735C958.356351 481.467773 962.347157 488.426102 962.347157 492.621565z"  horiz-adv-x="1024" />

    
    <glyph glyph-name="yue" unicode="&#58926;" d="M512.000012 877.877183C238.211676 877.877183 16.3592 656.024706 16.3592 382.23637c0-273.788336 221.852477-495.640812 495.640812-495.640812 273.788336 0 495.640812 221.852477 495.640812 495.640812C1007.640825 656.024706 785.788348 877.877183 512.000012 877.877183L512.000012 877.877183 512.000012 877.877183zM675.591888 320.20525c22.014966 0 40.016154-18.001188 40.016154-40.016154 0-22.014966-18.001188-40.016154-40.016154-40.016154L552.016166 240.172942l0-103.141941c0-22.014966-18.001188-40.016154-40.016154-40.016154-22.014966 0-40.016154 18.001188-40.016154 40.016154l0 103.141941L348.529766 240.172942c-22.014966 0-40.016154 18.001188-40.016154 40.016154 0 22.014966 18.001188 40.016154 40.016154 40.016154l123.575722 0 0 59.112009L348.529766 379.317259c-22.014966 0-40.016154 18.001188-40.016154 40.016154 0 22.014966 18.001188 40.016154 40.016154 40.016154l88.789642 0L329.92043 584.628103c-14.230669 16.663262-12.284594 42.083858 4.378667 56.314527l0 0c16.663262 14.352298 42.083858 12.284594 56.314527-4.378667l121.508018-141.576909 121.508018 141.576909c14.352298 16.663262 39.651265 18.609336 56.314527 4.378667l0 0c16.663262-14.352298 18.609336-39.651265 4.378667-56.314527L586.923875 459.349566l88.789642 0c22.014966 0 40.016154-18.001188 40.016154-40.016154 0-22.014966-18.001188-40.016154-40.016154-40.016154L552.016166 379.317259l0-59.112009L675.591888 320.20525 675.591888 320.20525zM675.591888 320.20525"  horiz-adv-x="1024" />

    
    <glyph glyph-name="21" unicode="&#58964;" d="M801.881157-71.411167l-656.389528 0c-22.163789 0-40.195467 19.518542-40.195467 43.51098L105.296161 795.901211c0 23.991414 18.031679 43.51098 40.195467 43.51098l656.389528 0c22.163789 0 40.195467-19.518542 40.195467-43.51098l0-371.767142c0-11.214413-9.091052-20.304442-20.305465-20.304442s-20.305465 9.090029-20.305465 20.304442l0 371.767142c0 1.427512-0.423649 2.39249-0.750083 2.901073L146.657174 798.802284c-0.327458-0.508583-0.751107-1.473561-0.751107-2.901073l0-823.802422c0-1.427512 0.423649-2.39249 0.751107-2.90005l655.223982 0c11.214413 0 20.305465-9.091052 20.305465-20.305465S813.095569-71.411167 801.881157-71.411167zM743.452419 405.418822 203.920366 405.418822c-11.167341 0-20.304442 9.137101-20.304442 20.304442l0 0c0 11.167341 9.137101 20.304442 20.304442 20.304442l539.532053 0c11.167341 0 20.305465-9.137101 20.305465-20.304442l0 0C763.756861 414.555923 754.61976 405.418822 743.452419 405.418822zM651.639341 37.673274c-5.887081 0-11.777231 2.24718-16.271592 6.741541-36.607756 36.607756-146.434094 146.428977-146.434094 146.428977-8.985652 8.982582-8.985652 23.554462 0 32.537044 8.987698 8.988722 23.554462 8.988722 32.543184 0l130.162502-107.144252 227.782843 204.767664c8.990768 8.988722 23.557532 8.988722 32.543184 0 8.985652-8.982582 8.985652-23.554462 0-32.537044L667.910932 44.413791C663.416572 39.919431 657.526421 37.673274 651.639341 37.673274z"  horiz-adv-x="1024" />

    
    <glyph glyph-name="chongzhi-copy" unicode="&#58896;" d="M739.142 626.079h74.878v-74.878c0-8.466 8.754-15.329 19.553-15.329 10.8 0 19.554 6.863 19.554 15.329l0 74.878h74.879c8.466 0 15.329 8.754 15.329 19.554 0 10.798-6.863 19.554-15.329 19.554h-74.879v74.878c0 8.466-8.754 15.331-19.554 15.331-10.799 0-19.553-6.865-19.553-15.331v-74.878h-74.878c-8.466 0-15.328-8.756-15.328-19.554 0-10.8 6.862-19.554 15.328-19.554zM665.122 360.179c13.395 0 24.256 9.114 24.256 20.356 0 11.244-10.861 20.358-24.256 20.358h-139.64v21.577l134.224 129.612c8.788 8.486 7.715 21.345-2.397 28.719-10.113 7.379-25.433 6.475-34.221-2.011l-121.943-117.759-114.37 117.57c-8.471 8.708-23.752 10.007-34.13 2.896-10.378-7.111-11.924-19.934-3.45-28.644l127.773-131.346v-20.612h-124.88c-13.397 0-24.257-9.114-24.257-20.358 0-11.241 10.86-20.356 24.257-20.356h124.88v-33.452l-124.88 0c-13.397 0-24.257-9.114-24.257-20.358s10.86-20.358 24.257-20.358h124.88v-106.432c0-11.244 10.86-20.356 24.257-20.356s24.256 9.112 24.256 20.356l0 106.432h139.64c13.395 0 24.256 9.114 24.256 20.358s-10.861 20.358-24.256 20.358l-139.64-0v33.452l139.64 0zM944.216 492.506c-2.792 11.070-14.032 17.778-25.097 14.989-11.070-2.794-17.779-14.031-14.987-25.099 8.205-32.533 12.366-66.212 12.366-100.097 0-224.911-182.98-407.894-407.892-407.894-224.913 0-407.893 182.981-407.893 407.894s182.979 407.894 407.892 407.894c59.886 0 117.571-12.673 171.452-37.669 10.355-4.804 22.646-0.304 27.449 10.050 4.804 10.356 0.305 22.646-10.051 27.45-59.371 27.542-122.91 41.508-188.849 41.508-119.995 0-232.808-46.729-317.657-131.576-84.851-84.849-131.578-197.662-131.578-317.658 0-119.993 46.728-232.806 131.578-317.656s197.661-131.579 317.657-131.579c119.994 0 232.806 46.729 317.657 131.579 84.848 84.849 131.577 197.663 131.577 317.656-0.001 37.294-4.584 74.371-13.623 110.206z"  horiz-adv-x="1024" />

    
    </font>
</defs>
</svg>
